<mxfile host="Electron" agent="Mozilla/5.0 (Macintosh; Intel Mac OS X 10_15_7) AppleWebKit/537.36 (KHTML, like Gecko) draw.io/27.0.9 Chrome/134.0.6998.205 Electron/35.4.0 Safari/537.36" version="27.0.9">
  <diagram name="第 1 页" id="5Lt5AoyF0umyA6Gw32Jw">
    <mxGraphModel dx="10532" dy="2716" grid="1" gridSize="10" guides="1" tooltips="1" connect="1" arrows="1" fold="1" page="1" pageScale="1" pageWidth="827" pageHeight="1169" math="0" shadow="0">
      <root>
        <mxCell id="0" />
        <mxCell id="1" parent="0" />
        <mxCell id="y3KNvf3Aafu49CcPfoXo-1" value="&lt;div style=&quot;color: #333333;background-color: #f5f5f5;font-family: Menlo, Monaco, &#39;Courier New&#39;, monospace;font-weight: normal;font-size: 15px;line-height: 23px;white-space: pre;&quot;&gt;&lt;div&gt;&lt;span style=&quot;color: #7a3e9d;font-weight: bold;&quot;&gt;assignment-expression&lt;/span&gt;&lt;/div&gt;&lt;/div&gt;" style="text;whiteSpace=wrap;html=1;" parent="1" vertex="1">
          <mxGeometry x="190" y="370" width="200" height="40" as="geometry" />
        </mxCell>
        <mxCell id="y3KNvf3Aafu49CcPfoXo-2" value="" style="endArrow=classic;html=1;rounded=0;exitX=0.135;exitY=0.988;exitDx=0;exitDy=0;exitPerimeter=0;entryX=0.5;entryY=0;entryDx=0;entryDy=0;" parent="1" source="y3KNvf3Aafu49CcPfoXo-1" target="y3KNvf3Aafu49CcPfoXo-3" edge="1">
          <mxGeometry width="50" height="50" relative="1" as="geometry">
            <mxPoint x="310" y="550" as="sourcePoint" />
            <mxPoint x="150" y="500" as="targetPoint" />
          </mxGeometry>
        </mxCell>
        <mxCell id="y3KNvf3Aafu49CcPfoXo-3" value="&lt;div style=&quot;color: #333333;background-color: #f5f5f5;font-family: Menlo, Monaco, &#39;Courier New&#39;, monospace;font-weight: normal;font-size: 15px;line-height: 23px;white-space: pre;&quot;&gt;&lt;div&gt;&lt;span style=&quot;color: #7a3e9d;font-weight: bold;&quot;&gt;conditional-expression&lt;/span&gt;&lt;/div&gt;&lt;/div&gt;" style="text;whiteSpace=wrap;html=1;" parent="1" vertex="1">
          <mxGeometry x="-120" y="520" width="200" height="40" as="geometry" />
        </mxCell>
        <mxCell id="y3KNvf3Aafu49CcPfoXo-4" value="&lt;div style=&quot;color: rgb(51, 51, 51); background-color: rgb(245, 245, 245); font-family: Menlo, Monaco, &amp;quot;Courier New&amp;quot;, monospace; font-weight: normal; font-size: 15px; line-height: 23px; white-space: pre;&quot;&gt;&lt;div&gt;&lt;span style=&quot;color: rgb(122, 62, 157); font-weight: bold;&quot;&gt;logical&lt;/span&gt;&lt;span style=&quot;color: rgb(122, 62, 157); font-weight: bold;&quot;&gt;-&lt;/span&gt;&lt;span style=&quot;color: rgb(122, 62, 157); font-weight: bold;&quot;&gt;or&lt;/span&gt;&lt;span style=&quot;color: rgb(122, 62, 157); font-weight: bold;&quot;&gt;-&lt;/span&gt;&lt;span style=&quot;color: rgb(122, 62, 157); font-weight: bold;&quot;&gt;expression&lt;/span&gt;&lt;span style=&quot;color: rgb(51, 51, 51);&quot;&gt; &lt;/span&gt;&lt;b style=&quot;color: rgb(0, 0, 0); font-family: Lucida, Courier; font-size: 16px; white-space: normal;&quot;&gt;= 或&amp;nbsp;&lt;/b&gt;&lt;b style=&quot;color: rgb(0, 0, 0); font-family: Lucida, Courier; font-size: 16px; white-space: normal;&quot;&gt;*=&amp;nbsp;&lt;/b&gt;&lt;b style=&quot;color: rgb(0, 0, 0); font-family: Lucida, Courier; font-size: 16px; white-space: normal;&quot;&gt;或&lt;/b&gt;&lt;b style=&quot;background-color: light-dark(rgb(245, 245, 245), rgb(245, 245, 245)); color: rgb(0, 0, 0); font-family: Lucida, Courier; font-size: 16px; white-space: normal;&quot;&gt;&amp;nbsp;&lt;/b&gt;&lt;b style=&quot;background-color: light-dark(rgb(245, 245, 245), rgb(245, 245, 245)); color: rgb(0, 0, 0); font-family: Lucida, Courier; font-size: 16px; white-space: normal;&quot;&gt;/=&amp;nbsp;&lt;/b&gt;&lt;b style=&quot;color: rgb(0, 0, 0); font-family: Lucida, Courier; font-size: 16px; white-space: normal;&quot;&gt;或&lt;/b&gt;&lt;b style=&quot;background-color: light-dark(rgb(245, 245, 245), rgb(245, 245, 245)); color: rgb(0, 0, 0); font-family: Lucida, Courier; font-size: 16px; white-space: normal;&quot;&gt;&amp;nbsp;&lt;/b&gt;&lt;b style=&quot;background-color: light-dark(rgb(245, 245, 245), rgb(245, 245, 245)); color: rgb(0, 0, 0); font-family: Lucida, Courier; font-size: 16px; white-space: normal;&quot;&gt;%=&amp;nbsp;&lt;/b&gt;&lt;b style=&quot;color: rgb(0, 0, 0); font-family: Lucida, Courier; font-size: 16px; white-space: normal;&quot;&gt;或 +=&amp;nbsp;&lt;/b&gt;&lt;b style=&quot;color: rgb(0, 0, 0); font-family: Lucida, Courier; font-size: 16px; white-space: normal;&quot;&gt;或 -=&amp;nbsp;&lt;/b&gt;&lt;b style=&quot;color: rgb(0, 0, 0); font-family: Lucida, Courier; font-size: 16px; white-space: normal;&quot;&gt;或 &amp;gt;&amp;gt;=&amp;nbsp;&lt;/b&gt;&lt;b style=&quot;color: rgb(0, 0, 0); font-family: Lucida, Courier; font-size: 16px; white-space: normal;&quot;&gt;或 &amp;lt;&amp;lt;=&amp;nbsp;&lt;/b&gt;&lt;b style=&quot;color: rgb(0, 0, 0); font-family: Lucida, Courier; font-size: 16px; white-space: normal;&quot;&gt;或 &amp;amp;=&amp;nbsp;&lt;/b&gt;&lt;b style=&quot;color: rgb(0, 0, 0); font-family: Lucida, Courier; font-size: 16px; white-space: normal;&quot;&gt;或 ^=&amp;nbsp;&lt;/b&gt;&lt;b style=&quot;color: rgb(0, 0, 0); font-family: Lucida, Courier; font-size: 16px; white-space: normal;&quot;&gt;或 |=&lt;/b&gt;&lt;span style=&quot;color: rgb(51, 51, 51); background-color: light-dark(rgb(245, 245, 245), rgb(245, 245, 245));&quot;&gt; &lt;/span&gt;&lt;span style=&quot;background-color: light-dark(rgb(245, 245, 245), rgb(245, 245, 245)); color: rgb(122, 62, 157); font-weight: bold;&quot;&gt;initializer&lt;/span&gt;&lt;span style=&quot;background-color: light-dark(rgb(245, 245, 245), rgb(245, 245, 245)); color: rgb(122, 62, 157); font-weight: bold;&quot;&gt;-&lt;/span&gt;&lt;span style=&quot;background-color: light-dark(rgb(245, 245, 245), rgb(245, 245, 245)); color: rgb(122, 62, 157); font-weight: bold;&quot;&gt;clause&lt;/span&gt;&lt;/div&gt;&lt;/div&gt;" style="text;whiteSpace=wrap;html=1;" parent="1" vertex="1">
          <mxGeometry x="360" y="530" width="970" height="50" as="geometry" />
        </mxCell>
        <mxCell id="y3KNvf3Aafu49CcPfoXo-5" value="" style="endArrow=classic;html=1;rounded=0;exitX=0.75;exitY=1;exitDx=0;exitDy=0;entryX=0.147;entryY=-0.03;entryDx=0;entryDy=0;entryPerimeter=0;" parent="1" source="y3KNvf3Aafu49CcPfoXo-1" target="y3KNvf3Aafu49CcPfoXo-4" edge="1">
          <mxGeometry width="50" height="50" relative="1" as="geometry">
            <mxPoint x="347" y="480" as="sourcePoint" />
            <mxPoint x="120" y="530" as="targetPoint" />
          </mxGeometry>
        </mxCell>
        <mxCell id="y3KNvf3Aafu49CcPfoXo-6" value="&lt;div style=&quot;color: #333333;background-color: #f5f5f5;font-family: Menlo, Monaco, &#39;Courier New&#39;, monospace;font-weight: normal;font-size: 15px;line-height: 23px;white-space: pre;&quot;&gt;&lt;div&gt;&lt;span style=&quot;color: #7a3e9d;font-weight: bold;&quot;&gt;logical-or-expression&lt;/span&gt;&lt;/div&gt;&lt;/div&gt;" style="text;whiteSpace=wrap;html=1;" parent="1" vertex="1">
          <mxGeometry x="-613" y="930" width="200" height="40" as="geometry" />
        </mxCell>
        <mxCell id="y3KNvf3Aafu49CcPfoXo-7" value="" style="endArrow=classic;html=1;rounded=0;exitX=0.403;exitY=0.988;exitDx=0;exitDy=0;exitPerimeter=0;entryX=0.538;entryY=0.03;entryDx=0;entryDy=0;entryPerimeter=0;" parent="1" source="y3KNvf3Aafu49CcPfoXo-3" target="y3KNvf3Aafu49CcPfoXo-6" edge="1">
          <mxGeometry width="50" height="50" relative="1" as="geometry">
            <mxPoint x="7" y="560" as="sourcePoint" />
            <mxPoint x="-230" y="630" as="targetPoint" />
          </mxGeometry>
        </mxCell>
        <mxCell id="y3KNvf3Aafu49CcPfoXo-8" value="&lt;div style=&quot;background-color: rgb(245, 245, 245); font-family: Menlo, Monaco, &amp;quot;Courier New&amp;quot;, monospace; font-weight: normal; line-height: 23px; white-space: pre;&quot;&gt;&lt;div style=&quot;&quot;&gt;&lt;span style=&quot;font-size: 15px; color: rgb(122, 62, 157); font-weight: bold;&quot;&gt;logical&lt;/span&gt;&lt;span style=&quot;font-size: 15px; color: rgb(122, 62, 157); font-weight: bold;&quot;&gt;-&lt;/span&gt;&lt;span style=&quot;font-size: 15px; color: rgb(122, 62, 157); font-weight: bold;&quot;&gt;or&lt;/span&gt;&lt;span style=&quot;font-size: 15px; color: rgb(122, 62, 157); font-weight: bold;&quot;&gt;-&lt;/span&gt;&lt;span style=&quot;font-size: 15px; color: rgb(122, 62, 157); font-weight: bold;&quot;&gt;expression&lt;/span&gt;&lt;span style=&quot;font-size: 15px; color: rgb(51, 51, 51);&quot;&gt; &lt;/span&gt;&lt;span style=&quot;font-size: 15px; color: rgb(51, 51, 51);&quot;&gt;&lt;font color=&quot;#7a3e9d&quot;&gt;?&lt;/font&gt;&lt;/span&gt;&lt;span style=&quot;font-size: 15px; color: rgb(51, 51, 51);&quot;&gt; &lt;/span&gt;&lt;span style=&quot;font-weight: bold;&quot;&gt;&lt;font style=&quot;color: rgb(204, 0, 0); font-size: 25px;&quot;&gt;expression&lt;/font&gt;&lt;/span&gt;&lt;span style=&quot;font-size: 15px; color: rgb(51, 51, 51);&quot;&gt; &lt;/span&gt;&lt;span style=&quot;font-size: 15px; color: rgb(51, 51, 51);&quot;&gt;&lt;font color=&quot;#7a3e9d&quot;&gt;:&lt;/font&gt;&lt;/span&gt;&lt;span style=&quot;font-size: 15px; color: rgb(51, 51, 51);&quot;&gt; &lt;/span&gt;&lt;span style=&quot;font-size: 15px; color: rgb(122, 62, 157); font-weight: bold;&quot;&gt;assignment&lt;/span&gt;&lt;span style=&quot;font-size: 15px; color: rgb(122, 62, 157); font-weight: bold;&quot;&gt;-&lt;/span&gt;&lt;span style=&quot;font-size: 15px; color: rgb(122, 62, 157); font-weight: bold;&quot;&gt;expression&lt;/span&gt;&lt;/div&gt;&lt;/div&gt;" style="text;whiteSpace=wrap;html=1;" parent="1" vertex="1">
          <mxGeometry x="-10" y="740" width="560" height="50" as="geometry" />
        </mxCell>
        <mxCell id="y3KNvf3Aafu49CcPfoXo-9" value="" style="endArrow=classic;html=1;rounded=0;exitX=0.56;exitY=0.988;exitDx=0;exitDy=0;exitPerimeter=0;entryX=0.345;entryY=0.01;entryDx=0;entryDy=0;entryPerimeter=0;" parent="1" source="y3KNvf3Aafu49CcPfoXo-3" target="y3KNvf3Aafu49CcPfoXo-8" edge="1">
          <mxGeometry width="50" height="50" relative="1" as="geometry">
            <mxPoint x="-29" y="570" as="sourcePoint" />
            <mxPoint x="-272" y="672" as="targetPoint" />
          </mxGeometry>
        </mxCell>
        <mxCell id="y3KNvf3Aafu49CcPfoXo-10" value="" style="endArrow=classic;html=1;rounded=0;exitX=0;exitY=0.75;exitDx=0;exitDy=0;" parent="1" source="y3KNvf3Aafu49CcPfoXo-4" target="y3KNvf3Aafu49CcPfoXo-6" edge="1">
          <mxGeometry width="50" height="50" relative="1" as="geometry">
            <mxPoint x="250" y="520" as="sourcePoint" />
            <mxPoint x="431" y="621" as="targetPoint" />
          </mxGeometry>
        </mxCell>
        <mxCell id="y3KNvf3Aafu49CcPfoXo-11" value="" style="endArrow=classic;html=1;rounded=0;exitX=0;exitY=0.5;exitDx=0;exitDy=0;entryX=1;entryY=0.5;entryDx=0;entryDy=0;" parent="1" source="y3KNvf3Aafu49CcPfoXo-8" target="y3KNvf3Aafu49CcPfoXo-6" edge="1">
          <mxGeometry width="50" height="50" relative="1" as="geometry">
            <mxPoint x="33" y="750" as="sourcePoint" />
            <mxPoint x="-310" y="982" as="targetPoint" />
          </mxGeometry>
        </mxCell>
        <mxCell id="y3KNvf3Aafu49CcPfoXo-12" value="" style="endArrow=classic;html=1;rounded=0;exitX=0.863;exitY=0.02;exitDx=0;exitDy=0;entryX=1;entryY=0.5;entryDx=0;entryDy=0;exitPerimeter=0;strokeColor=#CC0000;strokeWidth=5;" parent="1" source="y3KNvf3Aafu49CcPfoXo-4" target="y3KNvf3Aafu49CcPfoXo-1" edge="1">
          <mxGeometry width="50" height="50" relative="1" as="geometry">
            <mxPoint x="850" y="451" as="sourcePoint" />
            <mxPoint x="1013" y="530" as="targetPoint" />
          </mxGeometry>
        </mxCell>
        <mxCell id="_-G8AOY4ad8tcSgJihSU-2" value="" style="endArrow=classic;html=1;rounded=0;entryX=0.42;entryY=0.975;entryDx=0;entryDy=0;strokeColor=#CC0000;entryPerimeter=0;exitX=0.5;exitY=0;exitDx=0;exitDy=0;strokeWidth=5;" edge="1" parent="1" source="y3KNvf3Aafu49CcPfoXo-8" target="y3KNvf3Aafu49CcPfoXo-1">
          <mxGeometry width="50" height="50" relative="1" as="geometry">
            <mxPoint x="867" y="731" as="sourcePoint" />
            <mxPoint x="60" y="630" as="targetPoint" />
          </mxGeometry>
        </mxCell>
        <mxCell id="_-G8AOY4ad8tcSgJihSU-3" value="&lt;div style=&quot;background-color: rgb(245, 245, 245); font-family: Menlo, Monaco, &amp;quot;Courier New&amp;quot;, monospace; font-weight: normal; font-size: 15px; line-height: 23px; white-space: pre; color: rgb(51, 51, 51);&quot;&gt;&lt;div style=&quot;&quot;&gt;&lt;span style=&quot;color: rgb(122, 62, 157); font-weight: bold;&quot;&gt;expression&lt;/span&gt;&lt;span style=&quot;color: rgb(51, 51, 51);&quot;&gt; &lt;/span&gt;&lt;span style=&quot;color: rgb(51, 51, 51);&quot;&gt;&lt;font color=&quot;#7a3e9d&quot;&gt;,&lt;/font&gt;&lt;/span&gt;&lt;span style=&quot;color: rgb(51, 51, 51);&quot;&gt; &lt;/span&gt;&lt;span style=&quot;color: rgb(122, 62, 157); font-weight: bold;&quot;&gt;assignment&lt;/span&gt;&lt;span style=&quot;color: rgb(122, 62, 157); font-weight: bold;&quot;&gt;-&lt;/span&gt;&lt;span style=&quot;color: rgb(122, 62, 157); font-weight: bold;&quot;&gt;expression&lt;/span&gt;&lt;/div&gt;&lt;/div&gt;" style="text;whiteSpace=wrap;html=1;" vertex="1" parent="1">
          <mxGeometry x="10" y="910" width="380" height="50" as="geometry" />
        </mxCell>
        <mxCell id="_-G8AOY4ad8tcSgJihSU-4" value="" style="endArrow=classic;html=1;rounded=0;exitX=0.462;exitY=1.04;exitDx=0;exitDy=0;exitPerimeter=0;entryX=0.447;entryY=0.2;entryDx=0;entryDy=0;entryPerimeter=0;" edge="1" parent="1" source="y3KNvf3Aafu49CcPfoXo-8" target="_-G8AOY4ad8tcSgJihSU-3">
          <mxGeometry width="50" height="50" relative="1" as="geometry">
            <mxPoint x="50" y="739" as="sourcePoint" />
            <mxPoint x="241" y="920" as="targetPoint" />
          </mxGeometry>
        </mxCell>
        <mxCell id="_-G8AOY4ad8tcSgJihSU-5" value="&lt;div style=&quot;color: #333333;background-color: #f5f5f5;font-family: Menlo, Monaco, &#39;Courier New&#39;, monospace;font-weight: normal;font-size: 15px;line-height: 23px;white-space: pre;&quot;&gt;&lt;div&gt;&lt;span style=&quot;color: #7a3e9d;font-weight: bold;&quot;&gt;constant-expression&lt;/span&gt;&lt;/div&gt;&lt;/div&gt;" style="text;whiteSpace=wrap;html=1;" vertex="1" parent="1">
          <mxGeometry x="-250" y="450" width="170" height="30" as="geometry" />
        </mxCell>
        <mxCell id="_-G8AOY4ad8tcSgJihSU-6" value="" style="endArrow=classic;html=1;rounded=0;exitX=0.424;exitY=1;exitDx=0;exitDy=0;exitPerimeter=0;entryX=0.105;entryY=0;entryDx=0;entryDy=0;entryPerimeter=0;" edge="1" parent="1" source="_-G8AOY4ad8tcSgJihSU-5" target="y3KNvf3Aafu49CcPfoXo-3">
          <mxGeometry width="50" height="50" relative="1" as="geometry">
            <mxPoint x="50" y="460" as="sourcePoint" />
            <mxPoint x="100" y="410" as="targetPoint" />
          </mxGeometry>
        </mxCell>
        <mxCell id="_-G8AOY4ad8tcSgJihSU-7" value="&lt;div style=&quot;color: #333333;background-color: #f5f5f5;font-family: Menlo, Monaco, &#39;Courier New&#39;, monospace;font-weight: normal;font-size: 15px;line-height: 23px;white-space: pre;&quot;&gt;&lt;div&gt;&lt;span style=&quot;color: #7a3e9d;font-weight: bold;&quot;&gt;logical-and-expression&lt;/span&gt;&lt;/div&gt;&lt;/div&gt;" style="text;whiteSpace=wrap;html=1;" vertex="1" parent="1">
          <mxGeometry x="-1060" y="1360" width="200" height="40" as="geometry" />
        </mxCell>
        <mxCell id="_-G8AOY4ad8tcSgJihSU-8" value="" style="endArrow=classic;html=1;rounded=0;exitX=0.09;exitY=0.913;exitDx=0;exitDy=0;exitPerimeter=0;entryX=0.5;entryY=0;entryDx=0;entryDy=0;" edge="1" parent="1" source="y3KNvf3Aafu49CcPfoXo-6" target="_-G8AOY4ad8tcSgJihSU-7">
          <mxGeometry width="50" height="50" relative="1" as="geometry">
            <mxPoint x="-370" y="1000" as="sourcePoint" />
            <mxPoint x="-290" y="850" as="targetPoint" />
          </mxGeometry>
        </mxCell>
        <mxCell id="_-G8AOY4ad8tcSgJihSU-9" value="&lt;div style=&quot;background-color: rgb(245, 245, 245); font-family: Menlo, Monaco, &amp;quot;Courier New&amp;quot;, monospace; font-weight: normal; font-size: 15px; line-height: 23px; white-space: pre; color: rgb(51, 51, 51);&quot;&gt;&lt;div style=&quot;&quot;&gt;&lt;span style=&quot;color: rgb(122, 62, 157); font-weight: bold;&quot;&gt;logical&lt;/span&gt;&lt;span style=&quot;color: rgb(122, 62, 157); font-weight: bold;&quot;&gt;-&lt;/span&gt;&lt;span style=&quot;color: rgb(122, 62, 157); font-weight: bold;&quot;&gt;or&lt;/span&gt;&lt;span style=&quot;color: rgb(122, 62, 157); font-weight: bold;&quot;&gt;-&lt;/span&gt;&lt;span style=&quot;color: rgb(122, 62, 157); font-weight: bold;&quot;&gt;expression&lt;/span&gt;&lt;span style=&quot;color: rgb(51, 51, 51);&quot;&gt; &lt;/span&gt;&lt;span style=&quot;color: rgb(51, 51, 51);&quot;&gt;&lt;font color=&quot;#7a3e9d&quot;&gt;||&lt;/font&gt;&lt;/span&gt;&lt;span style=&quot;color: rgb(51, 51, 51);&quot;&gt; &lt;/span&gt;&lt;span style=&quot;color: rgb(122, 62, 157); font-weight: bold;&quot;&gt;logical&lt;/span&gt;&lt;span style=&quot;color: rgb(122, 62, 157); font-weight: bold;&quot;&gt;-&lt;/span&gt;&lt;span style=&quot;color: rgb(122, 62, 157); font-weight: bold;&quot;&gt;and&lt;/span&gt;&lt;span style=&quot;color: rgb(122, 62, 157); font-weight: bold;&quot;&gt;-&lt;/span&gt;&lt;span style=&quot;color: rgb(122, 62, 157); font-weight: bold;&quot;&gt;expression&lt;/span&gt;&lt;/div&gt;&lt;/div&gt;" style="text;whiteSpace=wrap;html=1;" vertex="1" parent="1">
          <mxGeometry x="-530" y="1150" width="430" height="29" as="geometry" />
        </mxCell>
        <mxCell id="_-G8AOY4ad8tcSgJihSU-10" value="" style="endArrow=classic;html=1;rounded=0;entryX=0.279;entryY=0.138;entryDx=0;entryDy=0;entryPerimeter=0;exitX=0.5;exitY=1;exitDx=0;exitDy=0;" edge="1" parent="1" source="y3KNvf3Aafu49CcPfoXo-6" target="_-G8AOY4ad8tcSgJihSU-9">
          <mxGeometry width="50" height="50" relative="1" as="geometry">
            <mxPoint x="-540" y="1050" as="sourcePoint" />
            <mxPoint x="-490" y="1000" as="targetPoint" />
          </mxGeometry>
        </mxCell>
        <mxCell id="_-G8AOY4ad8tcSgJihSU-11" value="" style="endArrow=classic;html=1;rounded=0;entryX=1;entryY=0.5;entryDx=0;entryDy=0;exitX=0.72;exitY=1.034;exitDx=0;exitDy=0;exitPerimeter=0;" edge="1" parent="1" source="_-G8AOY4ad8tcSgJihSU-9" target="_-G8AOY4ad8tcSgJihSU-7">
          <mxGeometry width="50" height="50" relative="1" as="geometry">
            <mxPoint x="-670" y="1190" as="sourcePoint" />
            <mxPoint x="-620" y="1140" as="targetPoint" />
          </mxGeometry>
        </mxCell>
        <mxCell id="_-G8AOY4ad8tcSgJihSU-12" value="&lt;div style=&quot;color: #333333;background-color: #f5f5f5;font-family: Menlo, Monaco, &#39;Courier New&#39;, monospace;font-weight: normal;font-size: 15px;line-height: 23px;white-space: pre;&quot;&gt;&lt;div style=&quot;line-height: 23px;&quot;&gt;&lt;span style=&quot;color: #7a3e9d;font-weight: bold;&quot;&gt;inclusive-or-expression&lt;/span&gt;&lt;/div&gt;&lt;/div&gt;" style="text;whiteSpace=wrap;html=1;" vertex="1" parent="1">
          <mxGeometry x="-1510" y="1790" width="210" height="30" as="geometry" />
        </mxCell>
        <mxCell id="_-G8AOY4ad8tcSgJihSU-13" value="" style="endArrow=classic;html=1;rounded=0;entryX=0.5;entryY=0;entryDx=0;entryDy=0;exitX=0.25;exitY=1;exitDx=0;exitDy=0;" edge="1" parent="1" source="_-G8AOY4ad8tcSgJihSU-7" target="_-G8AOY4ad8tcSgJihSU-12">
          <mxGeometry width="50" height="50" relative="1" as="geometry">
            <mxPoint x="-1120" y="1420" as="sourcePoint" />
            <mxPoint x="-1070" y="1370" as="targetPoint" />
          </mxGeometry>
        </mxCell>
        <mxCell id="_-G8AOY4ad8tcSgJihSU-14" value="&lt;div style=&quot;color: #333333;background-color: #f5f5f5;font-family: Menlo, Monaco, &#39;Courier New&#39;, monospace;font-weight: normal;font-size: 15px;line-height: 23px;white-space: pre;&quot;&gt;&lt;div style=&quot;line-height: 23px;&quot;&gt;&lt;span style=&quot;color: #7a3e9d;font-weight: bold;&quot;&gt;logical&lt;/span&gt;&lt;span style=&quot;color: #7a3e9d;font-weight: bold;&quot;&gt;-&lt;/span&gt;&lt;span style=&quot;color: #7a3e9d;font-weight: bold;&quot;&gt;and&lt;/span&gt;&lt;span style=&quot;color: #7a3e9d;font-weight: bold;&quot;&gt;-&lt;/span&gt;&lt;span style=&quot;color: #7a3e9d;font-weight: bold;&quot;&gt;expression&lt;/span&gt; &lt;span style=&quot;color: #7a3e9d;&quot;&gt;&amp;amp;&amp;amp;&lt;/span&gt; &lt;span style=&quot;color: #7a3e9d;font-weight: bold;&quot;&gt;inclusive&lt;/span&gt;&lt;span style=&quot;color: #7a3e9d;font-weight: bold;&quot;&gt;-&lt;/span&gt;&lt;span style=&quot;color: #7a3e9d;font-weight: bold;&quot;&gt;or&lt;/span&gt;&lt;span style=&quot;color: #7a3e9d;font-weight: bold;&quot;&gt;-&lt;/span&gt;&lt;span style=&quot;color: #7a3e9d;font-weight: bold;&quot;&gt;expression&lt;/span&gt;&lt;/div&gt;&lt;/div&gt;" style="text;whiteSpace=wrap;html=1;" vertex="1" parent="1">
          <mxGeometry x="-926" y="1590" width="513" height="40" as="geometry" />
        </mxCell>
        <mxCell id="_-G8AOY4ad8tcSgJihSU-15" value="" style="endArrow=classic;html=1;rounded=0;entryX=0.48;entryY=0.025;entryDx=0;entryDy=0;entryPerimeter=0;exitX=0.545;exitY=0.975;exitDx=0;exitDy=0;exitPerimeter=0;" edge="1" parent="1" source="_-G8AOY4ad8tcSgJihSU-7" target="_-G8AOY4ad8tcSgJihSU-14">
          <mxGeometry width="50" height="50" relative="1" as="geometry">
            <mxPoint x="-950" y="1460" as="sourcePoint" />
            <mxPoint x="-900" y="1410" as="targetPoint" />
          </mxGeometry>
        </mxCell>
        <mxCell id="_-G8AOY4ad8tcSgJihSU-16" value="" style="endArrow=classic;html=1;rounded=0;entryX=1;entryY=0.25;entryDx=0;entryDy=0;exitX=0.653;exitY=1.075;exitDx=0;exitDy=0;exitPerimeter=0;" edge="1" parent="1" source="_-G8AOY4ad8tcSgJihSU-14" target="_-G8AOY4ad8tcSgJihSU-12">
          <mxGeometry width="50" height="50" relative="1" as="geometry">
            <mxPoint x="-1010" y="1530" as="sourcePoint" />
            <mxPoint x="-960" y="1480" as="targetPoint" />
          </mxGeometry>
        </mxCell>
        <mxCell id="_-G8AOY4ad8tcSgJihSU-17" value="" style="endArrow=classic;html=1;rounded=0;exitX=0.417;exitY=0.95;exitDx=0;exitDy=0;exitPerimeter=0;entryX=0.457;entryY=0.038;entryDx=0;entryDy=0;entryPerimeter=0;" edge="1" parent="1" source="_-G8AOY4ad8tcSgJihSU-12" target="_-G8AOY4ad8tcSgJihSU-20">
          <mxGeometry width="50" height="50" relative="1" as="geometry">
            <mxPoint x="-1450" y="2030" as="sourcePoint" />
            <mxPoint x="-1870" y="2170" as="targetPoint" />
          </mxGeometry>
        </mxCell>
        <mxCell id="_-G8AOY4ad8tcSgJihSU-18" value="&lt;div style=&quot;background-color: rgb(245, 245, 245); font-family: Menlo, Monaco, &amp;quot;Courier New&amp;quot;, monospace; font-weight: normal; font-size: 15px; line-height: 23px; white-space: pre; color: rgb(51, 51, 51);&quot;&gt;&lt;div style=&quot;&quot;&gt;&lt;span style=&quot;color: rgb(122, 62, 157); font-weight: bold;&quot;&gt;inclusive&lt;/span&gt;&lt;span style=&quot;color: rgb(122, 62, 157); font-weight: bold;&quot;&gt;-&lt;/span&gt;&lt;span style=&quot;color: rgb(122, 62, 157); font-weight: bold;&quot;&gt;or&lt;/span&gt;&lt;span style=&quot;color: rgb(122, 62, 157); font-weight: bold;&quot;&gt;-&lt;/span&gt;&lt;span style=&quot;color: rgb(122, 62, 157); font-weight: bold;&quot;&gt;expression&lt;/span&gt;&lt;span style=&quot;color: rgb(51, 51, 51);&quot;&gt; &lt;/span&gt;&lt;span style=&quot;color: rgb(51, 51, 51);&quot;&gt;&lt;font color=&quot;#7a3e9d&quot;&gt;|&lt;/font&gt;&lt;/span&gt;&lt;span style=&quot;color: rgb(51, 51, 51);&quot;&gt; &lt;/span&gt;&lt;span style=&quot;color: rgb(122, 62, 157); font-weight: bold;&quot;&gt;exclusive&lt;/span&gt;&lt;span style=&quot;color: rgb(122, 62, 157); font-weight: bold;&quot;&gt;-&lt;/span&gt;&lt;span style=&quot;color: rgb(122, 62, 157); font-weight: bold;&quot;&gt;or&lt;/span&gt;&lt;span style=&quot;color: rgb(122, 62, 157); font-weight: bold;&quot;&gt;-&lt;/span&gt;&lt;span style=&quot;color: rgb(122, 62, 157); font-weight: bold;&quot;&gt;expression&lt;/span&gt;&lt;/div&gt;&lt;/div&gt;" style="text;whiteSpace=wrap;html=1;" vertex="1" parent="1">
          <mxGeometry x="-1410" y="2000" width="450" height="40" as="geometry" />
        </mxCell>
        <mxCell id="_-G8AOY4ad8tcSgJihSU-19" value="" style="endArrow=classic;html=1;rounded=0;entryX=0.352;entryY=0.088;entryDx=0;entryDy=0;entryPerimeter=0;exitX=0.436;exitY=1.05;exitDx=0;exitDy=0;exitPerimeter=0;" edge="1" parent="1" source="_-G8AOY4ad8tcSgJihSU-12" target="_-G8AOY4ad8tcSgJihSU-18">
          <mxGeometry width="50" height="50" relative="1" as="geometry">
            <mxPoint x="-1500" y="2180" as="sourcePoint" />
            <mxPoint x="-1450" y="2130" as="targetPoint" />
          </mxGeometry>
        </mxCell>
        <mxCell id="_-G8AOY4ad8tcSgJihSU-20" value="&lt;div style=&quot;color: #333333;background-color: #f5f5f5;font-family: Menlo, Monaco, &#39;Courier New&#39;, monospace;font-weight: normal;font-size: 15px;line-height: 23px;white-space: pre;&quot;&gt;&lt;div&gt;&lt;span style=&quot;color: #7a3e9d;font-weight: bold;&quot;&gt;exclusive-or-expression&lt;/span&gt;&lt;/div&gt;&lt;/div&gt;" style="text;whiteSpace=wrap;html=1;" vertex="1" parent="1">
          <mxGeometry x="-2010" y="2230" width="220" height="40" as="geometry" />
        </mxCell>
        <mxCell id="_-G8AOY4ad8tcSgJihSU-21" value="" style="endArrow=classic;html=1;rounded=0;exitX=0.706;exitY=0.963;exitDx=0;exitDy=0;exitPerimeter=0;entryX=1;entryY=0.25;entryDx=0;entryDy=0;" edge="1" parent="1" source="_-G8AOY4ad8tcSgJihSU-18" target="_-G8AOY4ad8tcSgJihSU-20">
          <mxGeometry width="50" height="50" relative="1" as="geometry">
            <mxPoint x="-1500" y="2180" as="sourcePoint" />
            <mxPoint x="-1450" y="2130" as="targetPoint" />
          </mxGeometry>
        </mxCell>
        <mxCell id="_-G8AOY4ad8tcSgJihSU-22" value="&lt;div style=&quot;color: #333333;background-color: #f5f5f5;font-family: Menlo, Monaco, &#39;Courier New&#39;, monospace;font-weight: normal;font-size: 15px;line-height: 23px;white-space: pre;&quot;&gt;&lt;div&gt;&lt;span style=&quot;color: #7a3e9d;font-weight: bold;&quot;&gt;and-expression&lt;/span&gt;&lt;/div&gt;&lt;/div&gt;" style="text;whiteSpace=wrap;html=1;" vertex="1" parent="1">
          <mxGeometry x="-2550" y="2660" width="130" height="40" as="geometry" />
        </mxCell>
        <mxCell id="_-G8AOY4ad8tcSgJihSU-23" value="" style="endArrow=classic;html=1;rounded=0;entryX=0.61;entryY=-0.019;entryDx=0;entryDy=0;entryPerimeter=0;exitX=0.333;exitY=0.996;exitDx=0;exitDy=0;exitPerimeter=0;" edge="1" parent="1" source="_-G8AOY4ad8tcSgJihSU-20" target="_-G8AOY4ad8tcSgJihSU-22">
          <mxGeometry width="50" height="50" relative="1" as="geometry">
            <mxPoint x="-2140" y="2250" as="sourcePoint" />
            <mxPoint x="-2090" y="2200" as="targetPoint" />
          </mxGeometry>
        </mxCell>
        <mxCell id="_-G8AOY4ad8tcSgJihSU-24" value="&lt;div style=&quot;background-color: rgb(245, 245, 245); font-family: Menlo, Monaco, &amp;quot;Courier New&amp;quot;, monospace; font-weight: normal; font-size: 15px; line-height: 23px; white-space: pre; color: rgb(51, 51, 51);&quot;&gt;&lt;div style=&quot;&quot;&gt;&lt;span style=&quot;color: rgb(122, 62, 157); font-weight: bold;&quot;&gt;exclusive&lt;/span&gt;&lt;span style=&quot;color: rgb(122, 62, 157); font-weight: bold;&quot;&gt;-&lt;/span&gt;&lt;span style=&quot;color: rgb(122, 62, 157); font-weight: bold;&quot;&gt;or&lt;/span&gt;&lt;span style=&quot;color: rgb(122, 62, 157); font-weight: bold;&quot;&gt;-&lt;/span&gt;&lt;span style=&quot;color: rgb(122, 62, 157); font-weight: bold;&quot;&gt;expression&lt;/span&gt;&lt;span style=&quot;color: rgb(51, 51, 51);&quot;&gt; &lt;/span&gt;&lt;span style=&quot;color: rgb(51, 51, 51);&quot;&gt;&lt;font color=&quot;#7a3e9d&quot;&gt;^&lt;/font&gt;&lt;/span&gt;&lt;span style=&quot;color: rgb(51, 51, 51);&quot;&gt; &lt;/span&gt;&lt;span style=&quot;color: rgb(122, 62, 157); font-weight: bold;&quot;&gt;and&lt;/span&gt;&lt;span style=&quot;color: rgb(122, 62, 157); font-weight: bold;&quot;&gt;-&lt;/span&gt;&lt;span style=&quot;color: rgb(122, 62, 157); font-weight: bold;&quot;&gt;expression&lt;/span&gt;&lt;/div&gt;&lt;/div&gt;" style="text;whiteSpace=wrap;html=1;" vertex="1" parent="1">
          <mxGeometry x="-1880" y="2400" width="380" height="40" as="geometry" />
        </mxCell>
        <mxCell id="_-G8AOY4ad8tcSgJihSU-25" value="" style="endArrow=classic;html=1;rounded=0;entryX=0.121;entryY=0.01;entryDx=0;entryDy=0;entryPerimeter=0;exitX=0.5;exitY=1;exitDx=0;exitDy=0;" edge="1" parent="1" source="_-G8AOY4ad8tcSgJihSU-20" target="_-G8AOY4ad8tcSgJihSU-24">
          <mxGeometry width="50" height="50" relative="1" as="geometry">
            <mxPoint x="-2060" y="2240" as="sourcePoint" />
            <mxPoint x="-2010" y="2190" as="targetPoint" />
          </mxGeometry>
        </mxCell>
        <mxCell id="_-G8AOY4ad8tcSgJihSU-26" value="" style="endArrow=classic;html=1;rounded=0;entryX=1;entryY=0.5;entryDx=0;entryDy=0;exitX=0.77;exitY=1.01;exitDx=0;exitDy=0;exitPerimeter=0;" edge="1" parent="1" source="_-G8AOY4ad8tcSgJihSU-24" target="_-G8AOY4ad8tcSgJihSU-22">
          <mxGeometry width="50" height="50" relative="1" as="geometry">
            <mxPoint x="-2060" y="2240" as="sourcePoint" />
            <mxPoint x="-2010" y="2190" as="targetPoint" />
          </mxGeometry>
        </mxCell>
        <mxCell id="_-G8AOY4ad8tcSgJihSU-27" value="&lt;div style=&quot;color: #333333;background-color: #f5f5f5;font-family: Menlo, Monaco, &#39;Courier New&#39;, monospace;font-weight: normal;font-size: 15px;line-height: 23px;white-space: pre;&quot;&gt;&lt;div&gt;&lt;span style=&quot;color: #7a3e9d;font-weight: bold;&quot;&gt;equality-expression&lt;/span&gt;&lt;/div&gt;&lt;/div&gt;" style="text;whiteSpace=wrap;html=1;" vertex="1" parent="1">
          <mxGeometry x="-2950" y="3050" width="180" height="40" as="geometry" />
        </mxCell>
        <mxCell id="_-G8AOY4ad8tcSgJihSU-28" value="" style="endArrow=classic;html=1;rounded=0;entryX=0.5;entryY=0;entryDx=0;entryDy=0;exitX=0.5;exitY=1;exitDx=0;exitDy=0;" edge="1" parent="1" source="_-G8AOY4ad8tcSgJihSU-22" target="_-G8AOY4ad8tcSgJihSU-27">
          <mxGeometry width="50" height="50" relative="1" as="geometry">
            <mxPoint x="-2390" y="2790" as="sourcePoint" />
            <mxPoint x="-2340" y="2740" as="targetPoint" />
          </mxGeometry>
        </mxCell>
        <mxCell id="_-G8AOY4ad8tcSgJihSU-29" value="&lt;div style=&quot;color: #333333;background-color: #f5f5f5;font-family: Menlo, Monaco, &#39;Courier New&#39;, monospace;font-weight: normal;font-size: 15px;line-height: 23px;white-space: pre;&quot;&gt;&lt;div&gt;&lt;span style=&quot;color: #7a3e9d;font-weight: bold;&quot;&gt;and&lt;/span&gt;&lt;span style=&quot;color: #7a3e9d;font-weight: bold;&quot;&gt;-&lt;/span&gt;&lt;span style=&quot;color: #7a3e9d;font-weight: bold;&quot;&gt;expression&lt;/span&gt;&lt;span style=&quot;color: #333333;&quot;&gt; &amp;amp; &lt;/span&gt;&lt;span style=&quot;color: #7a3e9d;font-weight: bold;&quot;&gt;equality&lt;/span&gt;&lt;span style=&quot;color: #7a3e9d;font-weight: bold;&quot;&gt;-&lt;/span&gt;&lt;span style=&quot;color: #7a3e9d;font-weight: bold;&quot;&gt;expression&lt;/span&gt;&lt;/div&gt;&lt;/div&gt;" style="text;whiteSpace=wrap;html=1;" vertex="1" parent="1">
          <mxGeometry x="-2410" y="2850" width="330" height="30" as="geometry" />
        </mxCell>
        <mxCell id="_-G8AOY4ad8tcSgJihSU-30" value="" style="endArrow=classic;html=1;rounded=0;exitX=0.678;exitY=1.025;exitDx=0;exitDy=0;exitPerimeter=0;entryX=0.331;entryY=-0.019;entryDx=0;entryDy=0;entryPerimeter=0;" edge="1" parent="1" source="_-G8AOY4ad8tcSgJihSU-22" target="_-G8AOY4ad8tcSgJihSU-29">
          <mxGeometry width="50" height="50" relative="1" as="geometry">
            <mxPoint x="-2390" y="2770" as="sourcePoint" />
            <mxPoint x="-2340" y="2720" as="targetPoint" />
          </mxGeometry>
        </mxCell>
        <mxCell id="_-G8AOY4ad8tcSgJihSU-31" value="" style="endArrow=classic;html=1;rounded=0;entryX=1;entryY=0.5;entryDx=0;entryDy=0;exitX=0.713;exitY=0.922;exitDx=0;exitDy=0;exitPerimeter=0;" edge="1" parent="1" source="_-G8AOY4ad8tcSgJihSU-29" target="_-G8AOY4ad8tcSgJihSU-27">
          <mxGeometry width="50" height="50" relative="1" as="geometry">
            <mxPoint x="-2390" y="2770" as="sourcePoint" />
            <mxPoint x="-2340" y="2720" as="targetPoint" />
          </mxGeometry>
        </mxCell>
        <mxCell id="_-G8AOY4ad8tcSgJihSU-32" value="&lt;div style=&quot;color: #333333;background-color: #f5f5f5;font-family: Menlo, Monaco, &#39;Courier New&#39;, monospace;font-weight: normal;font-size: 15px;line-height: 23px;white-space: pre;&quot;&gt;&lt;div&gt;&lt;span style=&quot;color: #7a3e9d;font-weight: bold;&quot;&gt;relational-expression&lt;/span&gt;&lt;/div&gt;&lt;/div&gt;" style="text;whiteSpace=wrap;html=1;" vertex="1" parent="1">
          <mxGeometry x="-3490" y="3600" width="200" height="40" as="geometry" />
        </mxCell>
        <mxCell id="_-G8AOY4ad8tcSgJihSU-33" value="" style="endArrow=classic;html=1;rounded=0;entryX=0.464;entryY=0.054;entryDx=0;entryDy=0;entryPerimeter=0;exitX=0.5;exitY=1;exitDx=0;exitDy=0;" edge="1" parent="1" source="_-G8AOY4ad8tcSgJihSU-27" target="_-G8AOY4ad8tcSgJihSU-32">
          <mxGeometry width="50" height="50" relative="1" as="geometry">
            <mxPoint x="-2780" y="3070" as="sourcePoint" />
            <mxPoint x="-2730" y="3020" as="targetPoint" />
          </mxGeometry>
        </mxCell>
        <mxCell id="_-G8AOY4ad8tcSgJihSU-34" value="&lt;div style=&quot;color: #333333;background-color: #f5f5f5;font-family: Menlo, Monaco, &#39;Courier New&#39;, monospace;font-weight: normal;font-size: 15px;line-height: 23px;white-space: pre;&quot;&gt;&lt;div&gt;&lt;span style=&quot;color: #7a3e9d;font-weight: bold;&quot;&gt;equality&lt;/span&gt;&lt;span style=&quot;color: #7a3e9d;font-weight: bold;&quot;&gt;-&lt;/span&gt;&lt;span style=&quot;color: #7a3e9d;font-weight: bold;&quot;&gt;expression&lt;/span&gt;&lt;span style=&quot;color: #333333;&quot;&gt; == &lt;/span&gt;&lt;span style=&quot;color: #7a3e9d;font-weight: bold;&quot;&gt;relational&lt;/span&gt;&lt;span style=&quot;color: #7a3e9d;font-weight: bold;&quot;&gt;-&lt;/span&gt;&lt;span style=&quot;color: #7a3e9d;font-weight: bold;&quot;&gt;expression&lt;/span&gt;&lt;/div&gt;&lt;/div&gt;" style="text;whiteSpace=wrap;html=1;" vertex="1" parent="1">
          <mxGeometry x="-2860" y="3250" width="400" height="40" as="geometry" />
        </mxCell>
        <mxCell id="_-G8AOY4ad8tcSgJihSU-35" value="&lt;div style=&quot;background-color: rgb(245, 245, 245); font-family: Menlo, Monaco, &amp;quot;Courier New&amp;quot;, monospace; font-weight: normal; font-size: 15px; line-height: 23px; white-space: pre; color: rgb(51, 51, 51);&quot;&gt;&lt;div style=&quot;&quot;&gt;&lt;span style=&quot;color: rgb(122, 62, 157); font-weight: bold;&quot;&gt;equality&lt;/span&gt;&lt;span style=&quot;color: rgb(122, 62, 157); font-weight: bold;&quot;&gt;-&lt;/span&gt;&lt;span style=&quot;color: rgb(122, 62, 157); font-weight: bold;&quot;&gt;expression&lt;/span&gt;&lt;span style=&quot;color: rgb(51, 51, 51);&quot;&gt; &lt;/span&gt;&lt;span style=&quot;color: rgb(51, 51, 51);&quot;&gt;&lt;font color=&quot;#7a3e9d&quot;&gt;!=&lt;/font&gt;&lt;/span&gt;&lt;span style=&quot;color: rgb(51, 51, 51);&quot;&gt; &lt;/span&gt;&lt;span style=&quot;color: rgb(122, 62, 157); font-weight: bold;&quot;&gt;relational&lt;/span&gt;&lt;span style=&quot;color: rgb(122, 62, 157); font-weight: bold;&quot;&gt;-&lt;/span&gt;&lt;span style=&quot;color: rgb(122, 62, 157); font-weight: bold;&quot;&gt;expression&lt;/span&gt;&lt;/div&gt;&lt;/div&gt;" style="text;whiteSpace=wrap;html=1;" vertex="1" parent="1">
          <mxGeometry x="-2320" y="3250" width="410" height="40" as="geometry" />
        </mxCell>
        <mxCell id="_-G8AOY4ad8tcSgJihSU-36" value="" style="endArrow=classic;html=1;rounded=0;exitX=0.581;exitY=0.937;exitDx=0;exitDy=0;exitPerimeter=0;entryX=0.463;entryY=-0.004;entryDx=0;entryDy=0;entryPerimeter=0;" edge="1" parent="1" source="_-G8AOY4ad8tcSgJihSU-27" target="_-G8AOY4ad8tcSgJihSU-34">
          <mxGeometry width="50" height="50" relative="1" as="geometry">
            <mxPoint x="-2790" y="3420" as="sourcePoint" />
            <mxPoint x="-2740" y="3370" as="targetPoint" />
          </mxGeometry>
        </mxCell>
        <mxCell id="_-G8AOY4ad8tcSgJihSU-37" value="" style="endArrow=classic;html=1;rounded=0;exitX=0.75;exitY=1;exitDx=0;exitDy=0;entryX=0.351;entryY=-0.034;entryDx=0;entryDy=0;entryPerimeter=0;" edge="1" parent="1" source="_-G8AOY4ad8tcSgJihSU-27" target="_-G8AOY4ad8tcSgJihSU-35">
          <mxGeometry width="50" height="50" relative="1" as="geometry">
            <mxPoint x="-2790" y="3420" as="sourcePoint" />
            <mxPoint x="-2740" y="3370" as="targetPoint" />
          </mxGeometry>
        </mxCell>
        <mxCell id="_-G8AOY4ad8tcSgJihSU-38" value="" style="endArrow=classic;html=1;rounded=0;exitX=0.657;exitY=0.996;exitDx=0;exitDy=0;exitPerimeter=0;entryX=0.8;entryY=0.041;entryDx=0;entryDy=0;entryPerimeter=0;" edge="1" parent="1" source="_-G8AOY4ad8tcSgJihSU-34" target="_-G8AOY4ad8tcSgJihSU-32">
          <mxGeometry width="50" height="50" relative="1" as="geometry">
            <mxPoint x="-2820" y="3420" as="sourcePoint" />
            <mxPoint x="-2770" y="3370" as="targetPoint" />
          </mxGeometry>
        </mxCell>
        <mxCell id="_-G8AOY4ad8tcSgJihSU-39" value="" style="endArrow=classic;html=1;rounded=0;entryX=1;entryY=0;entryDx=0;entryDy=0;exitX=0.716;exitY=1.033;exitDx=0;exitDy=0;exitPerimeter=0;" edge="1" parent="1" source="_-G8AOY4ad8tcSgJihSU-35" target="_-G8AOY4ad8tcSgJihSU-32">
          <mxGeometry width="50" height="50" relative="1" as="geometry">
            <mxPoint x="-2820" y="3420" as="sourcePoint" />
            <mxPoint x="-2770" y="3370" as="targetPoint" />
          </mxGeometry>
        </mxCell>
        <mxCell id="_-G8AOY4ad8tcSgJihSU-40" value="" style="endArrow=classic;html=1;rounded=0;entryX=0.453;entryY=0.023;entryDx=0;entryDy=0;entryPerimeter=0;exitX=0.329;exitY=1.08;exitDx=0;exitDy=0;exitPerimeter=0;" edge="1" parent="1" source="_-G8AOY4ad8tcSgJihSU-32" target="_-G8AOY4ad8tcSgJihSU-41">
          <mxGeometry width="50" height="50" relative="1" as="geometry">
            <mxPoint x="-3860" y="3680" as="sourcePoint" />
            <mxPoint x="-3650" y="3720" as="targetPoint" />
          </mxGeometry>
        </mxCell>
        <mxCell id="_-G8AOY4ad8tcSgJihSU-41" value="&lt;div style=&quot;color: #333333;background-color: #f5f5f5;font-family: Menlo, Monaco, &#39;Courier New&#39;, monospace;font-weight: normal;font-size: 15px;line-height: 23px;white-space: pre;&quot;&gt;&lt;div&gt;&lt;span style=&quot;color: #7a3e9d;font-weight: bold;&quot;&gt;shift-expression&lt;/span&gt;&lt;/div&gt;&lt;/div&gt;" style="text;whiteSpace=wrap;html=1;" vertex="1" parent="1">
          <mxGeometry x="-3950" y="4180" width="160" height="30" as="geometry" />
        </mxCell>
        <mxCell id="_-G8AOY4ad8tcSgJihSU-43" value="&lt;div style=&quot;background-color: rgb(245, 245, 245); font-family: Menlo, Monaco, &amp;quot;Courier New&amp;quot;, monospace; font-weight: normal; font-size: 15px; line-height: 23px; white-space: pre; color: rgb(51, 51, 51);&quot;&gt;&lt;div style=&quot;&quot;&gt;&lt;span style=&quot;color: rgb(122, 62, 157); font-weight: bold;&quot;&gt;relational&lt;/span&gt;&lt;span style=&quot;color: rgb(122, 62, 157); font-weight: bold;&quot;&gt;-&lt;/span&gt;&lt;span style=&quot;color: rgb(122, 62, 157); font-weight: bold;&quot;&gt;expression&lt;/span&gt;&lt;span style=&quot;color: rgb(51, 51, 51);&quot;&gt; &lt;/span&gt;&lt;span style=&quot;color: rgb(51, 51, 51);&quot;&gt;&lt;font color=&quot;#7a3e9d&quot;&gt;&amp;lt;&lt;/font&gt;&lt;/span&gt;&lt;span style=&quot;color: rgb(51, 51, 51);&quot;&gt; &lt;/span&gt;&lt;span style=&quot;color: rgb(122, 62, 157); font-weight: bold;&quot;&gt;shift&lt;/span&gt;&lt;span style=&quot;color: rgb(122, 62, 157); font-weight: bold;&quot;&gt;-&lt;/span&gt;&lt;span style=&quot;color: rgb(122, 62, 157); font-weight: bold;&quot;&gt;expression&lt;/span&gt;&lt;/div&gt;&lt;/div&gt;" style="text;whiteSpace=wrap;html=1;" vertex="1" parent="1">
          <mxGeometry x="-3380" y="3790" width="370" height="40" as="geometry" />
        </mxCell>
        <mxCell id="_-G8AOY4ad8tcSgJihSU-44" value="&lt;div style=&quot;background-color: rgb(245, 245, 245); font-family: Menlo, Monaco, &amp;quot;Courier New&amp;quot;, monospace; font-weight: normal; font-size: 15px; line-height: 23px; white-space: pre; color: rgb(51, 51, 51);&quot;&gt;&lt;div style=&quot;&quot;&gt;&lt;span style=&quot;color: rgb(122, 62, 157); font-weight: bold;&quot;&gt;relational&lt;/span&gt;&lt;span style=&quot;color: rgb(122, 62, 157); font-weight: bold;&quot;&gt;-&lt;/span&gt;&lt;span style=&quot;color: rgb(122, 62, 157); font-weight: bold;&quot;&gt;expression&lt;/span&gt;&lt;span style=&quot;color: rgb(51, 51, 51);&quot;&gt; &lt;/span&gt;&lt;span style=&quot;color: rgb(51, 51, 51);&quot;&gt;&lt;font color=&quot;#7a3e9d&quot;&gt;&amp;gt;&lt;/font&gt;&lt;/span&gt;&lt;span style=&quot;color: rgb(51, 51, 51);&quot;&gt; &lt;/span&gt;&lt;span style=&quot;color: rgb(122, 62, 157); font-weight: bold;&quot;&gt;shift&lt;/span&gt;&lt;span style=&quot;color: rgb(122, 62, 157); font-weight: bold;&quot;&gt;-&lt;/span&gt;&lt;span style=&quot;color: rgb(122, 62, 157); font-weight: bold;&quot;&gt;expression&lt;/span&gt;&lt;/div&gt;&lt;/div&gt;" style="text;whiteSpace=wrap;html=1;" vertex="1" parent="1">
          <mxGeometry x="-2940" y="3790" width="370" height="35" as="geometry" />
        </mxCell>
        <mxCell id="_-G8AOY4ad8tcSgJihSU-45" value="&lt;div style=&quot;background-color: rgb(245, 245, 245); font-family: Menlo, Monaco, &amp;quot;Courier New&amp;quot;, monospace; font-weight: normal; font-size: 15px; line-height: 23px; white-space: pre; color: rgb(51, 51, 51);&quot;&gt;&lt;div style=&quot;&quot;&gt;&lt;span style=&quot;color: rgb(122, 62, 157); font-weight: bold;&quot;&gt;relational&lt;/span&gt;&lt;span style=&quot;color: rgb(122, 62, 157); font-weight: bold;&quot;&gt;-&lt;/span&gt;&lt;span style=&quot;color: rgb(122, 62, 157); font-weight: bold;&quot;&gt;expression&lt;/span&gt;&lt;span style=&quot;color: rgb(51, 51, 51);&quot;&gt; &lt;/span&gt;&lt;span style=&quot;color: rgb(51, 51, 51);&quot;&gt;&lt;font color=&quot;#7a3e9d&quot;&gt;&amp;lt;=&lt;/font&gt;&lt;/span&gt;&lt;span style=&quot;color: rgb(51, 51, 51);&quot;&gt; &lt;/span&gt;&lt;span style=&quot;color: rgb(122, 62, 157); font-weight: bold;&quot;&gt;shift&lt;/span&gt;&lt;span style=&quot;color: rgb(122, 62, 157); font-weight: bold;&quot;&gt;-&lt;/span&gt;&lt;span style=&quot;color: rgb(122, 62, 157); font-weight: bold;&quot;&gt;expression&lt;/span&gt;&lt;/div&gt;&lt;/div&gt;" style="text;whiteSpace=wrap;html=1;" vertex="1" parent="1">
          <mxGeometry x="-2500" y="3790" width="380" height="40" as="geometry" />
        </mxCell>
        <mxCell id="_-G8AOY4ad8tcSgJihSU-46" value="&lt;div style=&quot;color: #333333;background-color: #f5f5f5;font-family: Menlo, Monaco, &#39;Courier New&#39;, monospace;font-weight: normal;font-size: 15px;line-height: 23px;white-space: pre;&quot;&gt;&lt;div&gt;&lt;span style=&quot;color: #7a3e9d;font-weight: bold;&quot;&gt;relational&lt;/span&gt;&lt;span style=&quot;color: #7a3e9d;font-weight: bold;&quot;&gt;-&lt;/span&gt;&lt;span style=&quot;color: #7a3e9d;font-weight: bold;&quot;&gt;expression&lt;/span&gt;&lt;span style=&quot;color: #333333;&quot;&gt; &lt;/span&gt;&lt;span style=&quot;color: #7a3e9d;&quot;&gt;&amp;gt;=&lt;/span&gt;&lt;span style=&quot;color: #333333;&quot;&gt; &lt;/span&gt;&lt;span style=&quot;color: #7a3e9d;font-weight: bold;&quot;&gt;shift&lt;/span&gt;&lt;span style=&quot;color: #7a3e9d;font-weight: bold;&quot;&gt;-&lt;/span&gt;&lt;span style=&quot;color: #7a3e9d;font-weight: bold;&quot;&gt;expression&lt;/span&gt;&lt;/div&gt;&lt;/div&gt;" style="text;whiteSpace=wrap;html=1;" vertex="1" parent="1">
          <mxGeometry x="-2080" y="3790" width="370" height="40" as="geometry" />
        </mxCell>
        <mxCell id="_-G8AOY4ad8tcSgJihSU-47" value="" style="endArrow=classic;html=1;rounded=0;exitX=0.75;exitY=1;exitDx=0;exitDy=0;entryX=0.75;entryY=0;entryDx=0;entryDy=0;" edge="1" parent="1" source="_-G8AOY4ad8tcSgJihSU-43" target="_-G8AOY4ad8tcSgJihSU-41">
          <mxGeometry width="50" height="50" relative="1" as="geometry">
            <mxPoint x="-2970" y="3660" as="sourcePoint" />
            <mxPoint x="-2920" y="3610" as="targetPoint" />
          </mxGeometry>
        </mxCell>
        <mxCell id="_-G8AOY4ad8tcSgJihSU-48" value="" style="endArrow=classic;html=1;rounded=0;entryX=1;entryY=1;entryDx=0;entryDy=0;exitX=0.75;exitY=1;exitDx=0;exitDy=0;" edge="1" parent="1" source="_-G8AOY4ad8tcSgJihSU-46" target="_-G8AOY4ad8tcSgJihSU-41">
          <mxGeometry width="50" height="50" relative="1" as="geometry">
            <mxPoint x="-2970" y="3660" as="sourcePoint" />
            <mxPoint x="-2920" y="3610" as="targetPoint" />
          </mxGeometry>
        </mxCell>
        <mxCell id="_-G8AOY4ad8tcSgJihSU-49" value="" style="endArrow=classic;html=1;rounded=0;exitX=0.788;exitY=0.966;exitDx=0;exitDy=0;exitPerimeter=0;entryX=1;entryY=0.25;entryDx=0;entryDy=0;" edge="1" parent="1" source="_-G8AOY4ad8tcSgJihSU-45" target="_-G8AOY4ad8tcSgJihSU-41">
          <mxGeometry width="50" height="50" relative="1" as="geometry">
            <mxPoint x="-2650" y="4117" as="sourcePoint" />
            <mxPoint x="-3740" y="4150" as="targetPoint" />
          </mxGeometry>
        </mxCell>
        <mxCell id="_-G8AOY4ad8tcSgJihSU-50" value="" style="endArrow=classic;html=1;rounded=0;exitX=0.75;exitY=1;exitDx=0;exitDy=0;entryX=1;entryY=0;entryDx=0;entryDy=0;" edge="1" parent="1" source="_-G8AOY4ad8tcSgJihSU-44" target="_-G8AOY4ad8tcSgJihSU-41">
          <mxGeometry width="50" height="50" relative="1" as="geometry">
            <mxPoint x="-2780" y="4030" as="sourcePoint" />
            <mxPoint x="-2730" y="3980" as="targetPoint" />
          </mxGeometry>
        </mxCell>
        <mxCell id="_-G8AOY4ad8tcSgJihSU-52" value="&lt;div style=&quot;color: #333333;background-color: #f5f5f5;font-family: Menlo, Monaco, &#39;Courier New&#39;, monospace;font-weight: normal;font-size: 15px;line-height: 23px;white-space: pre;&quot;&gt;&lt;div&gt;&lt;span style=&quot;color: #7a3e9d;font-weight: bold;&quot;&gt;additive-expression&lt;/span&gt;&lt;/div&gt;&lt;/div&gt;" style="text;whiteSpace=wrap;html=1;" vertex="1" parent="1">
          <mxGeometry x="-4460" y="4690" width="180" height="40" as="geometry" />
        </mxCell>
        <mxCell id="_-G8AOY4ad8tcSgJihSU-53" value="" style="endArrow=classic;html=1;rounded=0;entryX=0.5;entryY=0;entryDx=0;entryDy=0;exitX=0.152;exitY=1.136;exitDx=0;exitDy=0;exitPerimeter=0;" edge="1" parent="1" source="_-G8AOY4ad8tcSgJihSU-41" target="_-G8AOY4ad8tcSgJihSU-52">
          <mxGeometry width="50" height="50" relative="1" as="geometry">
            <mxPoint x="-3560" y="4250" as="sourcePoint" />
            <mxPoint x="-3510" y="4200" as="targetPoint" />
          </mxGeometry>
        </mxCell>
        <mxCell id="_-G8AOY4ad8tcSgJihSU-54" value="&lt;div style=&quot;background-color: rgb(245, 245, 245); font-family: Menlo, Monaco, &amp;quot;Courier New&amp;quot;, monospace; font-weight: normal; font-size: 15px; line-height: 23px; white-space: pre; color: rgb(51, 51, 51);&quot;&gt;&lt;div style=&quot;&quot;&gt;&lt;span style=&quot;color: rgb(122, 62, 157); font-weight: bold;&quot;&gt;shift&lt;/span&gt;&lt;span style=&quot;color: rgb(122, 62, 157); font-weight: bold;&quot;&gt;-&lt;/span&gt;&lt;span style=&quot;color: rgb(122, 62, 157); font-weight: bold;&quot;&gt;expression&lt;/span&gt;&lt;span style=&quot;color: rgb(51, 51, 51);&quot;&gt; &lt;/span&gt;&lt;span style=&quot;color: rgb(51, 51, 51);&quot;&gt;&lt;font color=&quot;#7a3e9d&quot;&gt;&amp;lt;&amp;lt;&lt;/font&gt;&lt;/span&gt;&lt;span style=&quot;color: rgb(51, 51, 51);&quot;&gt; &lt;/span&gt;&lt;span style=&quot;color: rgb(122, 62, 157); font-weight: bold;&quot;&gt;additive&lt;/span&gt;&lt;span style=&quot;color: rgb(122, 62, 157); font-weight: bold;&quot;&gt;-&lt;/span&gt;&lt;span style=&quot;color: rgb(122, 62, 157); font-weight: bold;&quot;&gt;expression&lt;/span&gt;&lt;/div&gt;&lt;/div&gt;" style="text;whiteSpace=wrap;html=1;" vertex="1" parent="1">
          <mxGeometry x="-3920" y="4400" width="370" height="40" as="geometry" />
        </mxCell>
        <mxCell id="_-G8AOY4ad8tcSgJihSU-55" value="&lt;div style=&quot;background-color: rgb(245, 245, 245); font-family: Menlo, Monaco, &amp;quot;Courier New&amp;quot;, monospace; font-weight: normal; font-size: 15px; line-height: 23px; white-space: pre; color: rgb(51, 51, 51);&quot;&gt;&lt;div style=&quot;&quot;&gt;&lt;span style=&quot;color: rgb(122, 62, 157); font-weight: bold;&quot;&gt;shift&lt;/span&gt;&lt;span style=&quot;color: rgb(122, 62, 157); font-weight: bold;&quot;&gt;-&lt;/span&gt;&lt;span style=&quot;color: rgb(122, 62, 157); font-weight: bold;&quot;&gt;expression&lt;/span&gt;&lt;span style=&quot;color: rgb(51, 51, 51);&quot;&gt; &lt;/span&gt;&lt;span style=&quot;color: rgb(51, 51, 51);&quot;&gt;&lt;font color=&quot;#7a3e9d&quot;&gt;&amp;gt;&amp;gt;&lt;/font&gt;&lt;/span&gt;&lt;span style=&quot;color: rgb(51, 51, 51);&quot;&gt; &lt;/span&gt;&lt;span style=&quot;color: rgb(122, 62, 157); font-weight: bold;&quot;&gt;additive&lt;/span&gt;&lt;span style=&quot;color: rgb(122, 62, 157); font-weight: bold;&quot;&gt;-&lt;/span&gt;&lt;span style=&quot;color: rgb(122, 62, 157); font-weight: bold;&quot;&gt;expression&lt;/span&gt;&lt;/div&gt;&lt;/div&gt;" style="text;whiteSpace=wrap;html=1;" vertex="1" parent="1">
          <mxGeometry x="-3375" y="4405" width="360" height="40" as="geometry" />
        </mxCell>
        <mxCell id="_-G8AOY4ad8tcSgJihSU-56" value="" style="endArrow=classic;html=1;rounded=0;exitX=0.649;exitY=1.009;exitDx=0;exitDy=0;exitPerimeter=0;entryX=1;entryY=0.25;entryDx=0;entryDy=0;" edge="1" parent="1" source="_-G8AOY4ad8tcSgJihSU-54" target="_-G8AOY4ad8tcSgJihSU-52">
          <mxGeometry width="50" height="50" relative="1" as="geometry">
            <mxPoint x="-3560" y="4250" as="sourcePoint" />
            <mxPoint x="-3510" y="4200" as="targetPoint" />
          </mxGeometry>
        </mxCell>
        <mxCell id="_-G8AOY4ad8tcSgJihSU-57" value="" style="endArrow=classic;html=1;rounded=0;exitX=0.708;exitY=0.909;exitDx=0;exitDy=0;exitPerimeter=0;entryX=1;entryY=0.5;entryDx=0;entryDy=0;" edge="1" parent="1" source="_-G8AOY4ad8tcSgJihSU-55" target="_-G8AOY4ad8tcSgJihSU-52">
          <mxGeometry width="50" height="50" relative="1" as="geometry">
            <mxPoint x="-3560" y="4250" as="sourcePoint" />
            <mxPoint x="-3510" y="4200" as="targetPoint" />
          </mxGeometry>
        </mxCell>
        <mxCell id="_-G8AOY4ad8tcSgJihSU-58" value="&lt;div style=&quot;color: #333333;background-color: #f5f5f5;font-family: Menlo, Monaco, &#39;Courier New&#39;, monospace;font-weight: normal;font-size: 15px;line-height: 23px;white-space: pre;&quot;&gt;&lt;div&gt;&lt;span style=&quot;color: #7a3e9d;font-weight: bold;&quot;&gt;multiplicative-expression&lt;/span&gt;&lt;/div&gt;&lt;/div&gt;" style="text;whiteSpace=wrap;html=1;" vertex="1" parent="1">
          <mxGeometry x="-5220" y="5310" width="240" height="40" as="geometry" />
        </mxCell>
        <mxCell id="_-G8AOY4ad8tcSgJihSU-59" value="&lt;div style=&quot;background-color: rgb(245, 245, 245); font-family: Menlo, Monaco, &amp;quot;Courier New&amp;quot;, monospace; font-weight: normal; font-size: 15px; line-height: 23px; white-space: pre; color: rgb(51, 51, 51);&quot;&gt;&lt;div style=&quot;&quot;&gt;&lt;span style=&quot;color: rgb(122, 62, 157); font-weight: bold;&quot;&gt;additive&lt;/span&gt;&lt;span style=&quot;color: rgb(122, 62, 157); font-weight: bold;&quot;&gt;-&lt;/span&gt;&lt;span style=&quot;color: rgb(122, 62, 157); font-weight: bold;&quot;&gt;expression&lt;/span&gt;&lt;span style=&quot;color: rgb(51, 51, 51);&quot;&gt; &lt;/span&gt;&lt;span style=&quot;color: rgb(51, 51, 51);&quot;&gt;&lt;font color=&quot;#7a3e9d&quot;&gt;+&lt;/font&gt;&lt;/span&gt;&lt;span style=&quot;color: rgb(51, 51, 51);&quot;&gt; &lt;/span&gt;&lt;span style=&quot;color: rgb(122, 62, 157); font-weight: bold;&quot;&gt;multiplicative&lt;/span&gt;&lt;span style=&quot;color: rgb(122, 62, 157); font-weight: bold;&quot;&gt;-&lt;/span&gt;&lt;span style=&quot;color: rgb(122, 62, 157); font-weight: bold;&quot;&gt;expression&lt;/span&gt;&lt;/div&gt;&lt;/div&gt;" style="text;whiteSpace=wrap;html=1;" vertex="1" parent="1">
          <mxGeometry x="-4440" y="4970" width="440" height="40" as="geometry" />
        </mxCell>
        <mxCell id="_-G8AOY4ad8tcSgJihSU-60" value="&lt;div style=&quot;background-color: rgb(245, 245, 245); font-family: Menlo, Monaco, &amp;quot;Courier New&amp;quot;, monospace; font-weight: normal; font-size: 15px; line-height: 23px; white-space: pre; color: rgb(51, 51, 51);&quot;&gt;&lt;div style=&quot;&quot;&gt;&lt;span style=&quot;color: rgb(122, 62, 157); font-weight: bold;&quot;&gt;additive&lt;/span&gt;&lt;span style=&quot;color: rgb(122, 62, 157); font-weight: bold;&quot;&gt;-&lt;/span&gt;&lt;span style=&quot;color: rgb(122, 62, 157); font-weight: bold;&quot;&gt;expression&lt;/span&gt;&lt;span style=&quot;color: rgb(51, 51, 51);&quot;&gt; &lt;/span&gt;&lt;span style=&quot;color: rgb(51, 51, 51);&quot;&gt;&lt;font color=&quot;#7a3e9d&quot;&gt;-&lt;/font&gt;&lt;/span&gt;&lt;span style=&quot;color: rgb(51, 51, 51);&quot;&gt; &lt;/span&gt;&lt;span style=&quot;color: rgb(122, 62, 157); font-weight: bold;&quot;&gt;multiplicative&lt;/span&gt;&lt;span style=&quot;color: rgb(122, 62, 157); font-weight: bold;&quot;&gt;-&lt;/span&gt;&lt;span style=&quot;color: rgb(122, 62, 157); font-weight: bold;&quot;&gt;expression&lt;/span&gt;&lt;/div&gt;&lt;/div&gt;" style="text;whiteSpace=wrap;html=1;" vertex="1" parent="1">
          <mxGeometry x="-3880" y="4970" width="440" height="40" as="geometry" />
        </mxCell>
        <mxCell id="_-G8AOY4ad8tcSgJihSU-61" value="" style="endArrow=classic;html=1;rounded=0;exitX=0.122;exitY=1;exitDx=0;exitDy=0;exitPerimeter=0;entryX=0.333;entryY=0.067;entryDx=0;entryDy=0;entryPerimeter=0;" edge="1" parent="1" source="_-G8AOY4ad8tcSgJihSU-52" target="_-G8AOY4ad8tcSgJihSU-58">
          <mxGeometry width="50" height="50" relative="1" as="geometry">
            <mxPoint x="-4310" y="5000" as="sourcePoint" />
            <mxPoint x="-4260" y="4950" as="targetPoint" />
          </mxGeometry>
        </mxCell>
        <mxCell id="_-G8AOY4ad8tcSgJihSU-62" value="" style="endArrow=classic;html=1;rounded=0;exitX=0.344;exitY=0.967;exitDx=0;exitDy=0;exitPerimeter=0;entryX=0.25;entryY=0;entryDx=0;entryDy=0;" edge="1" parent="1" source="_-G8AOY4ad8tcSgJihSU-52" target="_-G8AOY4ad8tcSgJihSU-59">
          <mxGeometry width="50" height="50" relative="1" as="geometry">
            <mxPoint x="-4310" y="5000" as="sourcePoint" />
            <mxPoint x="-4260" y="4950" as="targetPoint" />
          </mxGeometry>
        </mxCell>
        <mxCell id="_-G8AOY4ad8tcSgJihSU-63" value="" style="endArrow=classic;html=1;rounded=0;exitX=0.589;exitY=1;exitDx=0;exitDy=0;exitPerimeter=0;entryX=0.126;entryY=-0.053;entryDx=0;entryDy=0;entryPerimeter=0;" edge="1" parent="1" source="_-G8AOY4ad8tcSgJihSU-52" target="_-G8AOY4ad8tcSgJihSU-60">
          <mxGeometry width="50" height="50" relative="1" as="geometry">
            <mxPoint x="-4310" y="5000" as="sourcePoint" />
            <mxPoint x="-4260" y="4950" as="targetPoint" />
          </mxGeometry>
        </mxCell>
        <mxCell id="_-G8AOY4ad8tcSgJihSU-64" value="" style="endArrow=classic;html=1;rounded=0;exitX=0.788;exitY=1;exitDx=0;exitDy=0;exitPerimeter=0;entryX=1;entryY=0.5;entryDx=0;entryDy=0;" edge="1" parent="1" source="_-G8AOY4ad8tcSgJihSU-59" target="_-G8AOY4ad8tcSgJihSU-58">
          <mxGeometry width="50" height="50" relative="1" as="geometry">
            <mxPoint x="-4310" y="5000" as="sourcePoint" />
            <mxPoint x="-4260" y="4950" as="targetPoint" />
          </mxGeometry>
        </mxCell>
        <mxCell id="_-G8AOY4ad8tcSgJihSU-65" value="" style="endArrow=classic;html=1;rounded=0;exitX=0.594;exitY=1.033;exitDx=0;exitDy=0;exitPerimeter=0;entryX=1;entryY=0.75;entryDx=0;entryDy=0;" edge="1" parent="1" source="_-G8AOY4ad8tcSgJihSU-60" target="_-G8AOY4ad8tcSgJihSU-58">
          <mxGeometry width="50" height="50" relative="1" as="geometry">
            <mxPoint x="-4310" y="5000" as="sourcePoint" />
            <mxPoint x="-4260" y="4950" as="targetPoint" />
          </mxGeometry>
        </mxCell>
        <mxCell id="_-G8AOY4ad8tcSgJihSU-66" value="&lt;div style=&quot;color: #333333;background-color: #f5f5f5;font-family: Menlo, Monaco, &#39;Courier New&#39;, monospace;font-weight: normal;font-size: 15px;line-height: 23px;white-space: pre;&quot;&gt;&lt;div&gt;&lt;span style=&quot;color: #7a3e9d;font-weight: bold;&quot;&gt;pm-expression&lt;/span&gt;&lt;/div&gt;&lt;/div&gt;" style="text;whiteSpace=wrap;html=1;" vertex="1" parent="1">
          <mxGeometry x="-5700" y="6010" width="120" height="30" as="geometry" />
        </mxCell>
        <mxCell id="_-G8AOY4ad8tcSgJihSU-67" value="&lt;div style=&quot;background-color: rgb(245, 245, 245); font-family: Menlo, Monaco, &amp;quot;Courier New&amp;quot;, monospace; font-weight: normal; font-size: 15px; line-height: 23px; white-space: pre; color: rgb(51, 51, 51);&quot;&gt;&lt;div style=&quot;&quot;&gt;&lt;span style=&quot;color: rgb(122, 62, 157); font-weight: bold;&quot;&gt;multiplicative&lt;/span&gt;&lt;span style=&quot;color: rgb(122, 62, 157); font-weight: bold;&quot;&gt;-&lt;/span&gt;&lt;span style=&quot;color: rgb(122, 62, 157); font-weight: bold;&quot;&gt;expression&lt;/span&gt;&lt;span style=&quot;color: rgb(51, 51, 51);&quot;&gt; &lt;/span&gt;&lt;span style=&quot;color: rgb(51, 51, 51);&quot;&gt;&lt;font color=&quot;#7a3e9d&quot;&gt;*&lt;/font&gt;&lt;/span&gt;&lt;span style=&quot;color: rgb(51, 51, 51);&quot;&gt; &lt;/span&gt;&lt;span style=&quot;color: rgb(122, 62, 157); font-weight: bold;&quot;&gt;pm&lt;/span&gt;&lt;span style=&quot;color: rgb(122, 62, 157); font-weight: bold;&quot;&gt;-&lt;/span&gt;&lt;span style=&quot;color: rgb(122, 62, 157); font-weight: bold;&quot;&gt;expression&lt;/span&gt;&lt;/div&gt;&lt;/div&gt;" style="text;whiteSpace=wrap;html=1;" vertex="1" parent="1">
          <mxGeometry x="-5150" y="5610" width="390" height="40" as="geometry" />
        </mxCell>
        <mxCell id="_-G8AOY4ad8tcSgJihSU-68" value="&lt;div style=&quot;background-color: rgb(245, 245, 245); font-family: Menlo, Monaco, &amp;quot;Courier New&amp;quot;, monospace; font-weight: normal; font-size: 15px; line-height: 23px; white-space: pre; color: rgb(51, 51, 51);&quot;&gt;&lt;div style=&quot;&quot;&gt;&lt;span style=&quot;color: rgb(122, 62, 157); font-weight: bold;&quot;&gt;multiplicative&lt;/span&gt;&lt;span style=&quot;color: rgb(122, 62, 157); font-weight: bold;&quot;&gt;-&lt;/span&gt;&lt;span style=&quot;color: rgb(122, 62, 157); font-weight: bold;&quot;&gt;expression&lt;/span&gt;&lt;span style=&quot;color: rgb(51, 51, 51);&quot;&gt; &lt;/span&gt;&lt;span style=&quot;color: rgb(51, 51, 51);&quot;&gt;&lt;font color=&quot;#7a3e9d&quot;&gt;/&lt;/font&gt;&lt;/span&gt;&lt;span style=&quot;color: rgb(51, 51, 51);&quot;&gt; &lt;/span&gt;&lt;span style=&quot;color: rgb(122, 62, 157); font-weight: bold;&quot;&gt;pm&lt;/span&gt;&lt;span style=&quot;color: rgb(122, 62, 157); font-weight: bold;&quot;&gt;-&lt;/span&gt;&lt;span style=&quot;color: rgb(122, 62, 157); font-weight: bold;&quot;&gt;expression&lt;/span&gt;&lt;/div&gt;&lt;/div&gt;" style="text;whiteSpace=wrap;html=1;" vertex="1" parent="1">
          <mxGeometry x="-4700" y="5610" width="390" height="40" as="geometry" />
        </mxCell>
        <mxCell id="_-G8AOY4ad8tcSgJihSU-69" value="&lt;div style=&quot;background-color: rgb(245, 245, 245); font-family: Menlo, Monaco, &amp;quot;Courier New&amp;quot;, monospace; font-weight: normal; font-size: 15px; line-height: 23px; white-space: pre; color: rgb(51, 51, 51);&quot;&gt;&lt;div style=&quot;&quot;&gt;&lt;span style=&quot;color: rgb(122, 62, 157); font-weight: bold;&quot;&gt;multiplicative&lt;/span&gt;&lt;span style=&quot;color: rgb(122, 62, 157); font-weight: bold;&quot;&gt;-&lt;/span&gt;&lt;span style=&quot;color: rgb(122, 62, 157); font-weight: bold;&quot;&gt;expression&lt;/span&gt;&lt;span style=&quot;color: rgb(51, 51, 51);&quot;&gt; &lt;/span&gt;&lt;span style=&quot;color: rgb(51, 51, 51);&quot;&gt;&lt;font color=&quot;#7a3e9d&quot;&gt;%&lt;/font&gt;&lt;/span&gt;&lt;span style=&quot;color: rgb(51, 51, 51);&quot;&gt; &lt;/span&gt;&lt;span style=&quot;color: rgb(122, 62, 157); font-weight: bold;&quot;&gt;pm&lt;/span&gt;&lt;span style=&quot;color: rgb(122, 62, 157); font-weight: bold;&quot;&gt;-&lt;/span&gt;&lt;span style=&quot;color: rgb(122, 62, 157); font-weight: bold;&quot;&gt;expression&lt;/span&gt;&lt;/div&gt;&lt;/div&gt;" style="text;whiteSpace=wrap;html=1;" vertex="1" parent="1">
          <mxGeometry x="-4260" y="5610" width="400" height="30" as="geometry" />
        </mxCell>
        <mxCell id="_-G8AOY4ad8tcSgJihSU-70" value="" style="endArrow=classic;html=1;rounded=0;exitX=0;exitY=1;exitDx=0;exitDy=0;entryX=0.421;entryY=0.129;entryDx=0;entryDy=0;entryPerimeter=0;" edge="1" parent="1" source="_-G8AOY4ad8tcSgJihSU-58" target="_-G8AOY4ad8tcSgJihSU-66">
          <mxGeometry width="50" height="50" relative="1" as="geometry">
            <mxPoint x="-4970" y="5450" as="sourcePoint" />
            <mxPoint x="-4920" y="5400" as="targetPoint" />
          </mxGeometry>
        </mxCell>
        <mxCell id="_-G8AOY4ad8tcSgJihSU-71" value="" style="endArrow=classic;html=1;rounded=0;exitX=0.208;exitY=1;exitDx=0;exitDy=0;exitPerimeter=0;entryX=0.097;entryY=-0.082;entryDx=0;entryDy=0;entryPerimeter=0;" edge="1" parent="1" source="_-G8AOY4ad8tcSgJihSU-58" target="_-G8AOY4ad8tcSgJihSU-67">
          <mxGeometry width="50" height="50" relative="1" as="geometry">
            <mxPoint x="-4970" y="5450" as="sourcePoint" />
            <mxPoint x="-4920" y="5400" as="targetPoint" />
          </mxGeometry>
        </mxCell>
        <mxCell id="_-G8AOY4ad8tcSgJihSU-72" value="" style="endArrow=classic;html=1;rounded=0;exitX=0.36;exitY=0.989;exitDx=0;exitDy=0;exitPerimeter=0;entryX=0.115;entryY=-0.046;entryDx=0;entryDy=0;entryPerimeter=0;" edge="1" parent="1" source="_-G8AOY4ad8tcSgJihSU-58" target="_-G8AOY4ad8tcSgJihSU-68">
          <mxGeometry width="50" height="50" relative="1" as="geometry">
            <mxPoint x="-4970" y="5450" as="sourcePoint" />
            <mxPoint x="-4920" y="5400" as="targetPoint" />
          </mxGeometry>
        </mxCell>
        <mxCell id="_-G8AOY4ad8tcSgJihSU-73" value="" style="endArrow=classic;html=1;rounded=0;exitX=0.711;exitY=1.061;exitDx=0;exitDy=0;exitPerimeter=0;entryX=0.144;entryY=0.081;entryDx=0;entryDy=0;entryPerimeter=0;" edge="1" parent="1" source="_-G8AOY4ad8tcSgJihSU-58" target="_-G8AOY4ad8tcSgJihSU-69">
          <mxGeometry width="50" height="50" relative="1" as="geometry">
            <mxPoint x="-4970" y="5450" as="sourcePoint" />
            <mxPoint x="-4920" y="5400" as="targetPoint" />
          </mxGeometry>
        </mxCell>
        <mxCell id="_-G8AOY4ad8tcSgJihSU-74" value="" style="endArrow=classic;html=1;rounded=0;exitX=0.75;exitY=1;exitDx=0;exitDy=0;entryX=0.75;entryY=0;entryDx=0;entryDy=0;" edge="1" parent="1" source="_-G8AOY4ad8tcSgJihSU-67" target="_-G8AOY4ad8tcSgJihSU-66">
          <mxGeometry width="50" height="50" relative="1" as="geometry">
            <mxPoint x="-5100" y="5910" as="sourcePoint" />
            <mxPoint x="-5050" y="5860" as="targetPoint" />
          </mxGeometry>
        </mxCell>
        <mxCell id="_-G8AOY4ad8tcSgJihSU-75" value="" style="endArrow=classic;html=1;rounded=0;exitX=0.75;exitY=1;exitDx=0;exitDy=0;entryX=1;entryY=0.25;entryDx=0;entryDy=0;" edge="1" parent="1" source="_-G8AOY4ad8tcSgJihSU-68" target="_-G8AOY4ad8tcSgJihSU-66">
          <mxGeometry width="50" height="50" relative="1" as="geometry">
            <mxPoint x="-4930" y="5910" as="sourcePoint" />
            <mxPoint x="-4880" y="5860" as="targetPoint" />
          </mxGeometry>
        </mxCell>
        <mxCell id="_-G8AOY4ad8tcSgJihSU-76" value="" style="endArrow=classic;html=1;rounded=0;exitX=0.787;exitY=1.057;exitDx=0;exitDy=0;exitPerimeter=0;entryX=1;entryY=0.75;entryDx=0;entryDy=0;" edge="1" parent="1" source="_-G8AOY4ad8tcSgJihSU-69" target="_-G8AOY4ad8tcSgJihSU-66">
          <mxGeometry width="50" height="50" relative="1" as="geometry">
            <mxPoint x="-4930" y="5910" as="sourcePoint" />
            <mxPoint x="-4880" y="5860" as="targetPoint" />
          </mxGeometry>
        </mxCell>
        <mxCell id="_-G8AOY4ad8tcSgJihSU-77" value="&lt;div style=&quot;color: #333333;background-color: #f5f5f5;font-family: Menlo, Monaco, &#39;Courier New&#39;, monospace;font-weight: normal;font-size: 15px;line-height: 23px;white-space: pre;&quot;&gt;&lt;div&gt;&lt;span style=&quot;color: #7a3e9d;font-weight: bold;&quot;&gt;cast-expression&lt;/span&gt;&lt;/div&gt;&lt;/div&gt;" style="text;whiteSpace=wrap;html=1;" vertex="1" parent="1">
          <mxGeometry x="-6202" y="6640" width="150" height="40" as="geometry" />
        </mxCell>
        <mxCell id="_-G8AOY4ad8tcSgJihSU-78" value="&lt;div style=&quot;color: #333333;background-color: #f5f5f5;font-family: Menlo, Monaco, &#39;Courier New&#39;, monospace;font-weight: normal;font-size: 15px;line-height: 23px;white-space: pre;&quot;&gt;&lt;span style=&quot;color: #7a3e9d;font-weight: bold;&quot;&gt;pm&lt;/span&gt;&lt;span style=&quot;color: #7a3e9d;font-weight: bold;&quot;&gt;-&lt;/span&gt;&lt;span style=&quot;color: #7a3e9d;font-weight: bold;&quot;&gt;expression&lt;/span&gt;&lt;span style=&quot;color: #333333;&quot;&gt; &lt;/span&gt;&lt;span style=&quot;color: rgb(68, 140, 39);&quot;&gt;.*&lt;/span&gt;&lt;span style=&quot;color: rgb(51, 51, 51);&quot;&gt; &lt;/span&gt;&lt;span style=&quot;color: rgb(122, 62, 157); font-weight: bold;&quot;&gt;cast&lt;/span&gt;&lt;span style=&quot;color: rgb(122, 62, 157); font-weight: bold;&quot;&gt;-&lt;/span&gt;&lt;span style=&quot;color: rgb(122, 62, 157); font-weight: bold;&quot;&gt;expression&lt;/span&gt;&lt;br&gt;&lt;/div&gt;" style="text;whiteSpace=wrap;html=1;" vertex="1" parent="1">
          <mxGeometry x="-5520" y="6307.5" width="300" height="40" as="geometry" />
        </mxCell>
        <mxCell id="_-G8AOY4ad8tcSgJihSU-79" value="&lt;div style=&quot;color: #333333;background-color: #f5f5f5;font-family: Menlo, Monaco, &#39;Courier New&#39;, monospace;font-weight: normal;font-size: 15px;line-height: 23px;white-space: pre;&quot;&gt;&lt;span style=&quot;color: #7a3e9d;font-weight: bold;&quot;&gt;pm&lt;/span&gt;&lt;span style=&quot;color: #7a3e9d;font-weight: bold;&quot;&gt;-&lt;/span&gt;&lt;span style=&quot;color: #7a3e9d;font-weight: bold;&quot;&gt;expression&lt;/span&gt;&lt;span style=&quot;color: #333333;&quot;&gt; &lt;/span&gt;&lt;span style=&quot;color: rgb(68, 140, 39);&quot;&gt;-&amp;gt;*&lt;/span&gt;&lt;span style=&quot;color: rgb(51, 51, 51);&quot;&gt; &lt;/span&gt;&lt;span style=&quot;color: rgb(122, 62, 157); font-weight: bold;&quot;&gt;cast&lt;/span&gt;&lt;span style=&quot;color: rgb(122, 62, 157); font-weight: bold;&quot;&gt;-&lt;/span&gt;&lt;span style=&quot;color: rgb(122, 62, 157); font-weight: bold;&quot;&gt;expression&lt;/span&gt;&lt;br&gt;&lt;/div&gt;" style="text;whiteSpace=wrap;html=1;" vertex="1" parent="1">
          <mxGeometry x="-5130" y="6310" width="302" height="35" as="geometry" />
        </mxCell>
        <mxCell id="_-G8AOY4ad8tcSgJihSU-80" value="" style="endArrow=classic;html=1;rounded=0;exitX=0.086;exitY=0.979;exitDx=0;exitDy=0;exitPerimeter=0;entryX=0.5;entryY=0;entryDx=0;entryDy=0;" edge="1" parent="1" source="_-G8AOY4ad8tcSgJihSU-66" target="_-G8AOY4ad8tcSgJihSU-77">
          <mxGeometry width="50" height="50" relative="1" as="geometry">
            <mxPoint x="-5710" y="6150" as="sourcePoint" />
            <mxPoint x="-5660" y="6100" as="targetPoint" />
          </mxGeometry>
        </mxCell>
        <mxCell id="_-G8AOY4ad8tcSgJihSU-81" value="" style="endArrow=classic;html=1;rounded=0;entryX=0.16;entryY=0.016;entryDx=0;entryDy=0;entryPerimeter=0;exitX=0.25;exitY=1;exitDx=0;exitDy=0;" edge="1" parent="1" source="_-G8AOY4ad8tcSgJihSU-66" target="_-G8AOY4ad8tcSgJihSU-78">
          <mxGeometry width="50" height="50" relative="1" as="geometry">
            <mxPoint x="-5710" y="6150" as="sourcePoint" />
            <mxPoint x="-5660" y="6100" as="targetPoint" />
          </mxGeometry>
        </mxCell>
        <mxCell id="_-G8AOY4ad8tcSgJihSU-82" value="" style="endArrow=classic;html=1;rounded=0;exitX=0.628;exitY=0.938;exitDx=0;exitDy=0;exitPerimeter=0;entryX=0.08;entryY=0.089;entryDx=0;entryDy=0;entryPerimeter=0;" edge="1" parent="1" source="_-G8AOY4ad8tcSgJihSU-66" target="_-G8AOY4ad8tcSgJihSU-79">
          <mxGeometry width="50" height="50" relative="1" as="geometry">
            <mxPoint x="-5710" y="6150" as="sourcePoint" />
            <mxPoint x="-5300" y="6140" as="targetPoint" />
          </mxGeometry>
        </mxCell>
        <mxCell id="_-G8AOY4ad8tcSgJihSU-83" value="" style="endArrow=classic;html=1;rounded=0;entryX=0.75;entryY=0;entryDx=0;entryDy=0;exitX=0.75;exitY=1;exitDx=0;exitDy=0;" edge="1" parent="1" source="_-G8AOY4ad8tcSgJihSU-78" target="_-G8AOY4ad8tcSgJihSU-77">
          <mxGeometry width="50" height="50" relative="1" as="geometry">
            <mxPoint x="-5710" y="6310" as="sourcePoint" />
            <mxPoint x="-5660" y="6260" as="targetPoint" />
          </mxGeometry>
        </mxCell>
        <mxCell id="_-G8AOY4ad8tcSgJihSU-84" value="" style="endArrow=classic;html=1;rounded=0;exitX=0.75;exitY=1;exitDx=0;exitDy=0;entryX=1;entryY=0.5;entryDx=0;entryDy=0;" edge="1" parent="1" source="_-G8AOY4ad8tcSgJihSU-79" target="_-G8AOY4ad8tcSgJihSU-77">
          <mxGeometry width="50" height="50" relative="1" as="geometry">
            <mxPoint x="-5430" y="6310" as="sourcePoint" />
            <mxPoint x="-5490" y="6560" as="targetPoint" />
          </mxGeometry>
        </mxCell>
        <mxCell id="_-G8AOY4ad8tcSgJihSU-85" value="&lt;div style=&quot;color: #333333;background-color: #f5f5f5;font-family: Menlo, Monaco, &#39;Courier New&#39;, monospace;font-weight: normal;font-size: 15px;line-height: 23px;white-space: pre;&quot;&gt;&lt;div&gt;&lt;span style=&quot;color: #7a3e9d;font-weight: bold;&quot;&gt;unary-expression&lt;/span&gt;&lt;/div&gt;&lt;/div&gt;" style="text;whiteSpace=wrap;html=1;" vertex="1" parent="1">
          <mxGeometry x="-6560" y="7100" width="150" height="40" as="geometry" />
        </mxCell>
        <mxCell id="_-G8AOY4ad8tcSgJihSU-86" value="&lt;div style=&quot;background-color: rgb(245, 245, 245); font-family: Menlo, Monaco, &amp;quot;Courier New&amp;quot;, monospace; font-weight: normal; font-size: 15px; line-height: 23px; white-space: pre; color: rgb(51, 51, 51);&quot;&gt;&lt;div style=&quot;&quot;&gt;&lt;span style=&quot;color: rgb(51, 51, 51);&quot;&gt;&lt;font color=&quot;#7a3e9d&quot;&gt;(&lt;/font&gt;&lt;/span&gt;&lt;span style=&quot;color: rgb(51, 51, 51);&quot;&gt; &lt;/span&gt;&lt;span style=&quot;color: rgb(122, 62, 157); font-weight: bold;&quot;&gt;type&lt;/span&gt;&lt;span style=&quot;color: rgb(122, 62, 157); font-weight: bold;&quot;&gt;-&lt;/span&gt;&lt;span style=&quot;color: rgb(122, 62, 157); font-weight: bold;&quot;&gt;id&lt;/span&gt;&lt;span style=&quot;color: rgb(51, 51, 51);&quot;&gt; &lt;/span&gt;&lt;span style=&quot;color: rgb(51, 51, 51);&quot;&gt;&lt;font color=&quot;#7a3e9d&quot;&gt;)&lt;/font&gt;&lt;/span&gt;&lt;span style=&quot;color: rgb(51, 51, 51);&quot;&gt; &lt;/span&gt;&lt;span style=&quot;color: rgb(122, 62, 157); font-weight: bold;&quot;&gt;cast&lt;/span&gt;&lt;span style=&quot;color: rgb(122, 62, 157); font-weight: bold;&quot;&gt;-&lt;/span&gt;&lt;span style=&quot;color: rgb(122, 62, 157); font-weight: bold;&quot;&gt;expression&lt;/span&gt;&lt;span style=&quot;color: rgb(51, 51, 51);&quot;&gt; &lt;/span&gt;&lt;/div&gt;&lt;/div&gt;" style="text;whiteSpace=wrap;html=1;" vertex="1" parent="1">
          <mxGeometry x="-6052" y="6890" width="250" height="30" as="geometry" />
        </mxCell>
        <mxCell id="_-G8AOY4ad8tcSgJihSU-87" value="" style="endArrow=classic;html=1;rounded=0;exitX=0.5;exitY=1;exitDx=0;exitDy=0;entryX=0.25;entryY=0;entryDx=0;entryDy=0;" edge="1" parent="1" source="_-G8AOY4ad8tcSgJihSU-77" target="_-G8AOY4ad8tcSgJihSU-86">
          <mxGeometry width="50" height="50" relative="1" as="geometry">
            <mxPoint x="-6000" y="6890" as="sourcePoint" />
            <mxPoint x="-5950" y="6840" as="targetPoint" />
          </mxGeometry>
        </mxCell>
        <mxCell id="_-G8AOY4ad8tcSgJihSU-88" value="" style="endArrow=classic;html=1;rounded=0;exitX=0;exitY=1;exitDx=0;exitDy=0;entryX=0.75;entryY=0;entryDx=0;entryDy=0;" edge="1" parent="1" source="_-G8AOY4ad8tcSgJihSU-77" target="_-G8AOY4ad8tcSgJihSU-85">
          <mxGeometry width="50" height="50" relative="1" as="geometry">
            <mxPoint x="-6000" y="6890" as="sourcePoint" />
            <mxPoint x="-5950" y="6840" as="targetPoint" />
          </mxGeometry>
        </mxCell>
        <mxCell id="_-G8AOY4ad8tcSgJihSU-89" value="&lt;div style=&quot;color: #333333;background-color: #f5f5f5;font-family: Menlo, Monaco, &#39;Courier New&#39;, monospace;font-weight: normal;font-size: 15px;line-height: 23px;white-space: pre;&quot;&gt;&lt;div&gt;&lt;span style=&quot;color: #7a3e9d;font-weight: bold;&quot;&gt;postfix-expression&lt;/span&gt;&lt;/div&gt;&lt;/div&gt;" style="text;whiteSpace=wrap;html=1;" vertex="1" parent="1">
          <mxGeometry x="-6920" y="7640" width="170" height="30" as="geometry" />
        </mxCell>
        <mxCell id="_-G8AOY4ad8tcSgJihSU-90" value="&lt;div style=&quot;background-color: rgb(245, 245, 245); font-family: Menlo, Monaco, &amp;quot;Courier New&amp;quot;, monospace; font-weight: normal; font-size: 15px; line-height: 23px; white-space: pre; color: rgb(51, 51, 51);&quot;&gt;&lt;div style=&quot;&quot;&gt;&lt;span style=&quot;color: rgb(51, 51, 51);&quot;&gt;&lt;font color=&quot;#7a3e9d&quot;&gt;++&lt;/font&gt;&lt;/span&gt;&lt;span style=&quot;color: rgb(51, 51, 51);&quot;&gt; &lt;/span&gt;&lt;span style=&quot;color: rgb(122, 62, 157); font-weight: bold;&quot;&gt;cast&lt;/span&gt;&lt;span style=&quot;color: rgb(122, 62, 157); font-weight: bold;&quot;&gt;-&lt;/span&gt;&lt;span style=&quot;color: rgb(122, 62, 157); font-weight: bold;&quot;&gt;expression&lt;/span&gt;&lt;span style=&quot;color: rgb(51, 51, 51);&quot;&gt; &lt;/span&gt;&lt;/div&gt;&lt;/div&gt;" style="text;whiteSpace=wrap;html=1;" vertex="1" parent="1">
          <mxGeometry x="-6420" y="7370" width="180" height="40" as="geometry" />
        </mxCell>
        <mxCell id="_-G8AOY4ad8tcSgJihSU-91" value="&lt;div style=&quot;color: #333333;background-color: #f5f5f5;font-family: Menlo, Monaco, &#39;Courier New&#39;, monospace;font-weight: normal;font-size: 15px;line-height: 23px;white-space: pre;&quot;&gt;&lt;div&gt;&lt;span style=&quot;color: #7a3e9d;&quot;&gt;--&lt;/span&gt;&lt;span style=&quot;color: #333333;&quot;&gt; &lt;/span&gt;&lt;span style=&quot;color: #7a3e9d;font-weight: bold;&quot;&gt;cast&lt;/span&gt;&lt;span style=&quot;color: #7a3e9d;font-weight: bold;&quot;&gt;-&lt;/span&gt;&lt;span style=&quot;color: #7a3e9d;font-weight: bold;&quot;&gt;expression&lt;/span&gt;&lt;/div&gt;&lt;/div&gt;" style="text;whiteSpace=wrap;html=1;" vertex="1" parent="1">
          <mxGeometry x="-6202" y="7370" width="172" height="40" as="geometry" />
        </mxCell>
        <mxCell id="_-G8AOY4ad8tcSgJihSU-92" value="&lt;div style=&quot;background-color: rgb(245, 245, 245); font-family: Menlo, Monaco, &amp;quot;Courier New&amp;quot;, monospace; font-size: 15px; line-height: 23px; white-space: pre; color: rgb(51, 51, 51);&quot;&gt;&lt;div style=&quot;&quot;&gt;&lt;span style=&quot;color: rgb(51, 51, 51);&quot;&gt;&lt;font color=&quot;#7a3e9d&quot;&gt;&lt;b&gt;*&lt;/b&gt;&lt;/font&gt;&lt;/span&gt;&lt;span style=&quot;color: rgb(51, 51, 51); font-weight: normal;&quot;&gt; &lt;/span&gt;&lt;span style=&quot;color: rgb(122, 62, 157); font-weight: bold;&quot;&gt;cast&lt;/span&gt;&lt;span style=&quot;color: rgb(122, 62, 157); font-weight: bold;&quot;&gt;-&lt;/span&gt;&lt;span style=&quot;color: rgb(122, 62, 157); font-weight: bold;&quot;&gt;expression&lt;/span&gt;&lt;/div&gt;&lt;/div&gt;" style="text;whiteSpace=wrap;html=1;" vertex="1" parent="1">
          <mxGeometry x="-5970" y="7370" width="160" height="40" as="geometry" />
        </mxCell>
        <mxCell id="_-G8AOY4ad8tcSgJihSU-93" value="&lt;div style=&quot;color: #333333;background-color: #f5f5f5;font-family: Menlo, Monaco, &#39;Courier New&#39;, monospace;font-weight: normal;font-size: 15px;line-height: 23px;white-space: pre;&quot;&gt;&lt;div&gt;&lt;span style=&quot;color: #7a3e9d;&quot;&gt;sizeof&lt;/span&gt;&lt;span style=&quot;color: #333333;&quot;&gt; &lt;/span&gt;&lt;span style=&quot;color: #7a3e9d;font-weight: bold;&quot;&gt;unary&lt;/span&gt;&lt;span style=&quot;color: #7a3e9d;font-weight: bold;&quot;&gt;-&lt;/span&gt;&lt;span style=&quot;color: #7a3e9d;font-weight: bold;&quot;&gt;expression&lt;/span&gt;&lt;/div&gt;&lt;/div&gt;" style="text;whiteSpace=wrap;html=1;" vertex="1" parent="1">
          <mxGeometry x="-4720" y="7370" width="215" height="40" as="geometry" />
        </mxCell>
        <mxCell id="_-G8AOY4ad8tcSgJihSU-94" value="&lt;div style=&quot;background-color: rgb(245, 245, 245); font-family: Menlo, Monaco, &amp;quot;Courier New&amp;quot;, monospace; font-weight: normal; font-size: 15px; line-height: 23px; white-space: pre; color: rgb(51, 51, 51);&quot;&gt;&lt;div style=&quot;&quot;&gt;&lt;span style=&quot;color: rgb(122, 62, 157);&quot;&gt;sizeof&lt;/span&gt;&lt;span style=&quot;color: rgb(51, 51, 51);&quot;&gt; &lt;/span&gt;&lt;span style=&quot;color: rgb(51, 51, 51);&quot;&gt;&lt;font color=&quot;#7a3e9d&quot;&gt;(&lt;/font&gt;&lt;/span&gt;&lt;span style=&quot;color: rgb(51, 51, 51);&quot;&gt; &lt;/span&gt;&lt;span style=&quot;color: rgb(122, 62, 157); font-weight: bold;&quot;&gt;type&lt;/span&gt;&lt;span style=&quot;color: rgb(122, 62, 157); font-weight: bold;&quot;&gt;-&lt;/span&gt;&lt;span style=&quot;color: rgb(122, 62, 157); font-weight: bold;&quot;&gt;id&lt;/span&gt;&lt;span style=&quot;color: rgb(51, 51, 51);&quot;&gt; &lt;/span&gt;&lt;span style=&quot;color: rgb(51, 51, 51);&quot;&gt;&lt;font color=&quot;#7a3e9d&quot;&gt;)&lt;/font&gt;&lt;/span&gt;&lt;/div&gt;&lt;/div&gt;" style="text;whiteSpace=wrap;html=1;" vertex="1" parent="1">
          <mxGeometry x="-4490" y="7370" width="170" height="40" as="geometry" />
        </mxCell>
        <mxCell id="_-G8AOY4ad8tcSgJihSU-95" value="&lt;div style=&quot;background-color: rgb(245, 245, 245); font-family: Menlo, Monaco, &amp;quot;Courier New&amp;quot;, monospace; font-size: 15px; line-height: 23px; white-space: pre; color: rgb(51, 51, 51);&quot;&gt;&lt;div style=&quot;&quot;&gt;&lt;span style=&quot;color: rgb(51, 51, 51);&quot;&gt;&lt;font color=&quot;#7a3e9d&quot;&gt;&lt;b&gt;*&lt;/b&gt;&lt;/font&gt;&lt;/span&gt;&lt;span style=&quot;color: rgb(51, 51, 51); font-weight: normal;&quot;&gt; &lt;/span&gt;&lt;span style=&quot;color: rgb(122, 62, 157); font-weight: bold;&quot;&gt;cast&lt;/span&gt;&lt;span style=&quot;color: rgb(122, 62, 157); font-weight: bold;&quot;&gt;-&lt;/span&gt;&lt;span style=&quot;color: rgb(122, 62, 157); font-weight: bold;&quot;&gt;expression&lt;/span&gt;&lt;/div&gt;&lt;/div&gt;" style="text;whiteSpace=wrap;html=1;" vertex="1" parent="1">
          <mxGeometry x="-5610" y="7370" width="160" height="40" as="geometry" />
        </mxCell>
        <mxCell id="_-G8AOY4ad8tcSgJihSU-96" value="&lt;div style=&quot;background-color: rgb(245, 245, 245); font-family: Menlo, Monaco, &amp;quot;Courier New&amp;quot;, monospace; font-size: 15px; line-height: 23px; white-space: pre; color: rgb(51, 51, 51);&quot;&gt;&lt;div style=&quot;&quot;&gt;&lt;span style=&quot;color: rgb(51, 51, 51); font-weight: normal;&quot;&gt;&amp;amp; &lt;/span&gt;&lt;span style=&quot;color: rgb(122, 62, 157); font-weight: bold;&quot;&gt;cast&lt;/span&gt;&lt;span style=&quot;color: rgb(122, 62, 157); font-weight: bold;&quot;&gt;-&lt;/span&gt;&lt;span style=&quot;color: rgb(122, 62, 157); font-weight: bold;&quot;&gt;expression&lt;/span&gt;&lt;/div&gt;&lt;/div&gt;" style="text;whiteSpace=wrap;html=1;" vertex="1" parent="1">
          <mxGeometry x="-5789" y="7370" width="160" height="40" as="geometry" />
        </mxCell>
        <mxCell id="_-G8AOY4ad8tcSgJihSU-97" value="&lt;div style=&quot;background-color: rgb(245, 245, 245); font-family: Menlo, Monaco, &amp;quot;Courier New&amp;quot;, monospace; font-size: 15px; line-height: 23px; white-space: pre; color: rgb(51, 51, 51);&quot;&gt;&lt;div style=&quot;&quot;&gt;&lt;span style=&quot;color: rgb(51, 51, 51);&quot;&gt;&lt;font color=&quot;#7a3e9d&quot;&gt;&lt;b&gt;-&lt;/b&gt;&lt;/font&gt;&lt;/span&gt;&lt;span style=&quot;color: rgb(51, 51, 51); font-weight: normal;&quot;&gt; &lt;/span&gt;&lt;span style=&quot;color: rgb(122, 62, 157); font-weight: bold;&quot;&gt;cast&lt;/span&gt;&lt;span style=&quot;color: rgb(122, 62, 157); font-weight: bold;&quot;&gt;-&lt;/span&gt;&lt;span style=&quot;color: rgb(122, 62, 157); font-weight: bold;&quot;&gt;expression&lt;/span&gt;&lt;/div&gt;&lt;/div&gt;" style="text;whiteSpace=wrap;html=1;" vertex="1" parent="1">
          <mxGeometry x="-5440" y="7370" width="160" height="40" as="geometry" />
        </mxCell>
        <mxCell id="_-G8AOY4ad8tcSgJihSU-98" value="&lt;div style=&quot;background-color: rgb(245, 245, 245); font-family: Menlo, Monaco, &amp;quot;Courier New&amp;quot;, monospace; font-size: 15px; line-height: 23px; white-space: pre; color: rgb(51, 51, 51);&quot;&gt;&lt;div style=&quot;&quot;&gt;&lt;span style=&quot;color: rgb(51, 51, 51);&quot;&gt;&lt;font color=&quot;#7a3e9d&quot;&gt;&lt;b&gt;+&lt;/b&gt;&lt;/font&gt;&lt;/span&gt;&lt;span style=&quot;color: rgb(51, 51, 51); font-weight: normal;&quot;&gt; &lt;/span&gt;&lt;span style=&quot;color: rgb(122, 62, 157); font-weight: bold;&quot;&gt;cast&lt;/span&gt;&lt;span style=&quot;color: rgb(122, 62, 157); font-weight: bold;&quot;&gt;-&lt;/span&gt;&lt;span style=&quot;color: rgb(122, 62, 157); font-weight: bold;&quot;&gt;expression&lt;/span&gt;&lt;/div&gt;&lt;/div&gt;" style="text;whiteSpace=wrap;html=1;" vertex="1" parent="1">
          <mxGeometry x="-5260" y="7370" width="160" height="40" as="geometry" />
        </mxCell>
        <mxCell id="_-G8AOY4ad8tcSgJihSU-99" value="&lt;div style=&quot;background-color: rgb(245, 245, 245); font-family: Menlo, Monaco, &amp;quot;Courier New&amp;quot;, monospace; font-size: 15px; line-height: 23px; white-space: pre; color: rgb(51, 51, 51);&quot;&gt;&lt;div style=&quot;&quot;&gt;&lt;span style=&quot;color: rgb(51, 51, 51);&quot;&gt;&lt;font color=&quot;#7a3e9d&quot;&gt;&lt;b&gt;!&lt;/b&gt;&lt;/font&gt;&lt;/span&gt;&lt;span style=&quot;color: rgb(51, 51, 51); font-weight: normal;&quot;&gt; &lt;/span&gt;&lt;span style=&quot;color: rgb(122, 62, 157); font-weight: bold;&quot;&gt;cast&lt;/span&gt;&lt;span style=&quot;color: rgb(122, 62, 157); font-weight: bold;&quot;&gt;-&lt;/span&gt;&lt;span style=&quot;color: rgb(122, 62, 157); font-weight: bold;&quot;&gt;expression&lt;/span&gt;&lt;/div&gt;&lt;/div&gt;" style="text;whiteSpace=wrap;html=1;" vertex="1" parent="1">
          <mxGeometry x="-5070" y="7370" width="160" height="40" as="geometry" />
        </mxCell>
        <mxCell id="_-G8AOY4ad8tcSgJihSU-100" value="&lt;div style=&quot;background-color: rgb(245, 245, 245); font-family: Menlo, Monaco, &amp;quot;Courier New&amp;quot;, monospace; font-size: 15px; line-height: 23px; white-space: pre; color: rgb(51, 51, 51);&quot;&gt;&lt;div style=&quot;&quot;&gt;&lt;span style=&quot;color: rgb(51, 51, 51); font-weight: normal;&quot;&gt;&lt;span style=&quot;color: rgb(68, 140, 39);&quot;&gt;~&lt;/span&gt; &lt;/span&gt;&lt;span style=&quot;color: rgb(122, 62, 157); font-weight: bold;&quot;&gt;cast&lt;/span&gt;&lt;span style=&quot;color: rgb(122, 62, 157); font-weight: bold;&quot;&gt;-&lt;/span&gt;&lt;span style=&quot;color: rgb(122, 62, 157); font-weight: bold;&quot;&gt;expression&lt;/span&gt;&lt;/div&gt;&lt;/div&gt;" style="text;whiteSpace=wrap;html=1;" vertex="1" parent="1">
          <mxGeometry x="-4890" y="7370" width="160" height="40" as="geometry" />
        </mxCell>
        <mxCell id="_-G8AOY4ad8tcSgJihSU-101" value="" style="endArrow=classic;html=1;rounded=0;exitX=1;exitY=0.25;exitDx=0;exitDy=0;entryX=0.06;entryY=0.125;entryDx=0;entryDy=0;entryPerimeter=0;" edge="1" parent="1" source="_-G8AOY4ad8tcSgJihSU-85" target="_-G8AOY4ad8tcSgJihSU-100">
          <mxGeometry width="50" height="50" relative="1" as="geometry">
            <mxPoint x="-6260" y="7220" as="sourcePoint" />
            <mxPoint x="-6210" y="7170" as="targetPoint" />
          </mxGeometry>
        </mxCell>
        <mxCell id="_-G8AOY4ad8tcSgJihSU-102" value="" style="endArrow=classic;html=1;rounded=0;exitX=1;exitY=0.25;exitDx=0;exitDy=0;entryX=0.068;entryY=-0.031;entryDx=0;entryDy=0;entryPerimeter=0;" edge="1" parent="1" source="_-G8AOY4ad8tcSgJihSU-85" target="_-G8AOY4ad8tcSgJihSU-99">
          <mxGeometry width="50" height="50" relative="1" as="geometry">
            <mxPoint x="-6260" y="7220" as="sourcePoint" />
            <mxPoint x="-6210" y="7170" as="targetPoint" />
          </mxGeometry>
        </mxCell>
        <mxCell id="_-G8AOY4ad8tcSgJihSU-103" value="" style="endArrow=classic;html=1;rounded=0;exitX=1;exitY=0.25;exitDx=0;exitDy=0;entryX=0;entryY=0;entryDx=0;entryDy=0;" edge="1" parent="1" source="_-G8AOY4ad8tcSgJihSU-85" target="_-G8AOY4ad8tcSgJihSU-98">
          <mxGeometry width="50" height="50" relative="1" as="geometry">
            <mxPoint x="-6260" y="7220" as="sourcePoint" />
            <mxPoint x="-6210" y="7170" as="targetPoint" />
          </mxGeometry>
        </mxCell>
        <mxCell id="_-G8AOY4ad8tcSgJihSU-104" value="" style="endArrow=classic;html=1;rounded=0;exitX=1;exitY=0.5;exitDx=0;exitDy=0;entryX=0;entryY=0;entryDx=0;entryDy=0;" edge="1" parent="1" source="_-G8AOY4ad8tcSgJihSU-85" target="_-G8AOY4ad8tcSgJihSU-97">
          <mxGeometry width="50" height="50" relative="1" as="geometry">
            <mxPoint x="-6260" y="7220" as="sourcePoint" />
            <mxPoint x="-6210" y="7170" as="targetPoint" />
          </mxGeometry>
        </mxCell>
        <mxCell id="_-G8AOY4ad8tcSgJihSU-105" value="" style="endArrow=classic;html=1;rounded=0;exitX=1;exitY=0.5;exitDx=0;exitDy=0;entryX=0.103;entryY=0.094;entryDx=0;entryDy=0;entryPerimeter=0;" edge="1" parent="1" source="_-G8AOY4ad8tcSgJihSU-85" target="_-G8AOY4ad8tcSgJihSU-95">
          <mxGeometry width="50" height="50" relative="1" as="geometry">
            <mxPoint x="-6260" y="7220" as="sourcePoint" />
            <mxPoint x="-6210" y="7170" as="targetPoint" />
          </mxGeometry>
        </mxCell>
        <mxCell id="_-G8AOY4ad8tcSgJihSU-106" value="" style="endArrow=classic;html=1;rounded=0;exitX=1;exitY=0.5;exitDx=0;exitDy=0;entryX=0.25;entryY=0;entryDx=0;entryDy=0;" edge="1" parent="1" source="_-G8AOY4ad8tcSgJihSU-85" target="_-G8AOY4ad8tcSgJihSU-96">
          <mxGeometry width="50" height="50" relative="1" as="geometry">
            <mxPoint x="-6260" y="7220" as="sourcePoint" />
            <mxPoint x="-6210" y="7170" as="targetPoint" />
          </mxGeometry>
        </mxCell>
        <mxCell id="_-G8AOY4ad8tcSgJihSU-107" value="" style="endArrow=classic;html=1;rounded=0;exitX=1;exitY=0.5;exitDx=0;exitDy=0;entryX=0;entryY=0;entryDx=0;entryDy=0;" edge="1" parent="1" source="_-G8AOY4ad8tcSgJihSU-85" target="_-G8AOY4ad8tcSgJihSU-92">
          <mxGeometry width="50" height="50" relative="1" as="geometry">
            <mxPoint x="-6260" y="7220" as="sourcePoint" />
            <mxPoint x="-6210" y="7170" as="targetPoint" />
          </mxGeometry>
        </mxCell>
        <mxCell id="_-G8AOY4ad8tcSgJihSU-108" value="" style="endArrow=classic;html=1;rounded=0;exitX=1;exitY=0.5;exitDx=0;exitDy=0;entryX=0;entryY=0.25;entryDx=0;entryDy=0;" edge="1" parent="1" source="_-G8AOY4ad8tcSgJihSU-85" target="_-G8AOY4ad8tcSgJihSU-91">
          <mxGeometry width="50" height="50" relative="1" as="geometry">
            <mxPoint x="-6260" y="7220" as="sourcePoint" />
            <mxPoint x="-6210" y="7170" as="targetPoint" />
          </mxGeometry>
        </mxCell>
        <mxCell id="_-G8AOY4ad8tcSgJihSU-109" value="" style="endArrow=classic;html=1;rounded=0;exitX=1;exitY=1;exitDx=0;exitDy=0;entryX=0.25;entryY=0;entryDx=0;entryDy=0;" edge="1" parent="1" source="_-G8AOY4ad8tcSgJihSU-85" target="_-G8AOY4ad8tcSgJihSU-90">
          <mxGeometry width="50" height="50" relative="1" as="geometry">
            <mxPoint x="-6260" y="7220" as="sourcePoint" />
            <mxPoint x="-6210" y="7170" as="targetPoint" />
          </mxGeometry>
        </mxCell>
        <mxCell id="_-G8AOY4ad8tcSgJihSU-110" value="" style="endArrow=classic;html=1;rounded=0;exitX=1;exitY=0;exitDx=0;exitDy=0;entryX=0;entryY=0;entryDx=0;entryDy=0;" edge="1" parent="1" source="_-G8AOY4ad8tcSgJihSU-85" target="_-G8AOY4ad8tcSgJihSU-94">
          <mxGeometry width="50" height="50" relative="1" as="geometry">
            <mxPoint x="-6110" y="7220" as="sourcePoint" />
            <mxPoint x="-6060" y="7170" as="targetPoint" />
          </mxGeometry>
        </mxCell>
        <mxCell id="_-G8AOY4ad8tcSgJihSU-111" value="" style="endArrow=classic;html=1;rounded=0;exitX=1;exitY=0;exitDx=0;exitDy=0;entryX=0.051;entryY=0.094;entryDx=0;entryDy=0;entryPerimeter=0;" edge="1" parent="1" source="_-G8AOY4ad8tcSgJihSU-85" target="_-G8AOY4ad8tcSgJihSU-93">
          <mxGeometry width="50" height="50" relative="1" as="geometry">
            <mxPoint x="-6110" y="7220" as="sourcePoint" />
            <mxPoint x="-6060" y="7170" as="targetPoint" />
          </mxGeometry>
        </mxCell>
        <mxCell id="_-G8AOY4ad8tcSgJihSU-112" value="" style="endArrow=classic;html=1;rounded=0;exitX=0;exitY=0.75;exitDx=0;exitDy=0;entryX=0.5;entryY=0;entryDx=0;entryDy=0;" edge="1" parent="1" source="_-G8AOY4ad8tcSgJihSU-85" target="_-G8AOY4ad8tcSgJihSU-89">
          <mxGeometry width="50" height="50" relative="1" as="geometry">
            <mxPoint x="-6360" y="7630" as="sourcePoint" />
            <mxPoint x="-6310" y="7580" as="targetPoint" />
          </mxGeometry>
        </mxCell>
        <mxCell id="_-G8AOY4ad8tcSgJihSU-113" value="&lt;div style=&quot;color: #333333;background-color: #f5f5f5;font-family: Menlo, Monaco, &#39;Courier New&#39;, monospace;font-weight: normal;font-size: 15px;line-height: 23px;white-space: pre;&quot;&gt;&lt;div&gt;&lt;span style=&quot;color: #7a3e9d;font-weight: bold;&quot;&gt;primary-expression&lt;/span&gt;&lt;/div&gt;&lt;/div&gt;" style="text;whiteSpace=wrap;html=1;" vertex="1" parent="1">
          <mxGeometry x="-7380" y="8320" width="170" height="40" as="geometry" />
        </mxCell>
        <mxCell id="_-G8AOY4ad8tcSgJihSU-114" value="&lt;div style=&quot;background-color: rgb(245, 245, 245); font-family: Menlo, Monaco, &amp;quot;Courier New&amp;quot;, monospace; font-weight: normal; font-size: 15px; line-height: 23px; white-space: pre; color: rgb(51, 51, 51);&quot;&gt;&lt;div style=&quot;&quot;&gt;&lt;span style=&quot;color: rgb(122, 62, 157); font-weight: bold;&quot;&gt;postfix&lt;/span&gt;&lt;span style=&quot;color: rgb(122, 62, 157); font-weight: bold;&quot;&gt;-&lt;/span&gt;&lt;span style=&quot;color: rgb(122, 62, 157); font-weight: bold;&quot;&gt;expression&lt;/span&gt;&lt;span style=&quot;color: rgb(51, 51, 51);&quot;&gt; &lt;/span&gt;&lt;span style=&quot;color: rgb(51, 51, 51);&quot;&gt;&lt;font color=&quot;#7a3e9d&quot;&gt;[&lt;/font&gt;&lt;/span&gt;&lt;span style=&quot;color: rgb(51, 51, 51);&quot;&gt; &lt;/span&gt;&lt;span style=&quot;color: rgb(122, 62, 157); font-weight: bold;&quot;&gt;expression&lt;/span&gt;&lt;span style=&quot;color: rgb(51, 51, 51);&quot;&gt; &lt;/span&gt;&lt;span style=&quot;color: rgb(51, 51, 51);&quot;&gt;&lt;font color=&quot;#7a3e9d&quot;&gt;]&lt;/font&gt;&lt;/span&gt;&lt;/div&gt;&lt;/div&gt;" style="text;whiteSpace=wrap;html=1;" vertex="1" parent="1">
          <mxGeometry x="-6840" y="7940" width="310" height="40" as="geometry" />
        </mxCell>
        <mxCell id="_-G8AOY4ad8tcSgJihSU-115" value="&lt;div style=&quot;background-color: rgb(245, 245, 245); font-family: Menlo, Monaco, &amp;quot;Courier New&amp;quot;, monospace; font-weight: normal; font-size: 15px; line-height: 23px; white-space: pre; color: rgb(51, 51, 51);&quot;&gt;&lt;div style=&quot;&quot;&gt;&lt;span style=&quot;color: rgb(122, 62, 157); font-weight: bold;&quot;&gt;postfix&lt;/span&gt;&lt;span style=&quot;color: rgb(122, 62, 157); font-weight: bold;&quot;&gt;-&lt;/span&gt;&lt;span style=&quot;color: rgb(122, 62, 157); font-weight: bold;&quot;&gt;expression&lt;/span&gt;&lt;span style=&quot;color: rgb(51, 51, 51);&quot;&gt; &lt;/span&gt;&lt;span style=&quot;color: rgb(51, 51, 51);&quot;&gt;&lt;font color=&quot;#7a3e9d&quot;&gt;()&lt;/font&gt;&lt;/span&gt;&lt;/div&gt;&lt;/div&gt;" style="text;whiteSpace=wrap;html=1;" vertex="1" parent="1">
          <mxGeometry x="-6510" y="7940" width="200" height="40" as="geometry" />
        </mxCell>
        <mxCell id="_-G8AOY4ad8tcSgJihSU-116" value="&lt;div style=&quot;background-color: rgb(245, 245, 245); font-family: Menlo, Monaco, &amp;quot;Courier New&amp;quot;, monospace; font-weight: normal; font-size: 15px; line-height: 23px; white-space: pre; color: rgb(51, 51, 51);&quot;&gt;&lt;div style=&quot;&quot;&gt;&lt;span style=&quot;color: rgb(122, 62, 157); font-weight: bold;&quot;&gt;postfix&lt;/span&gt;&lt;span style=&quot;color: rgb(122, 62, 157); font-weight: bold;&quot;&gt;-&lt;/span&gt;&lt;span style=&quot;color: rgb(122, 62, 157); font-weight: bold;&quot;&gt;expression&lt;/span&gt;&lt;span style=&quot;color: rgb(51, 51, 51);&quot;&gt; &lt;/span&gt;&lt;span style=&quot;color: rgb(51, 51, 51);&quot;&gt;&lt;font color=&quot;#7a3e9d&quot;&gt;(&lt;/font&gt;&lt;/span&gt;&lt;span style=&quot;color: rgb(51, 51, 51);&quot;&gt; &lt;/span&gt;&lt;span style=&quot;color: rgb(122, 62, 157); font-weight: bold;&quot;&gt;expression&lt;/span&gt;&lt;span style=&quot;color: rgb(122, 62, 157); font-weight: bold;&quot;&gt;-&lt;/span&gt;&lt;span style=&quot;color: rgb(122, 62, 157); font-weight: bold;&quot;&gt;list&lt;/span&gt;&lt;span style=&quot;color: rgb(51, 51, 51);&quot;&gt; &lt;/span&gt;&lt;span style=&quot;color: rgb(51, 51, 51);&quot;&gt;&lt;font color=&quot;#7a3e9d&quot;&gt;)&lt;/font&gt;&lt;/span&gt;&lt;/div&gt;&lt;/div&gt;" style="text;whiteSpace=wrap;html=1;" vertex="1" parent="1">
          <mxGeometry x="-6270" y="7940" width="350" height="40" as="geometry" />
        </mxCell>
        <mxCell id="_-G8AOY4ad8tcSgJihSU-117" value="&lt;div style=&quot;background-color: rgb(245, 245, 245); font-family: Menlo, Monaco, &amp;quot;Courier New&amp;quot;, monospace; font-weight: normal; font-size: 15px; line-height: 23px; white-space: pre; color: rgb(51, 51, 51);&quot;&gt;&lt;div style=&quot;&quot;&gt;&lt;span style=&quot;color: rgb(122, 62, 157); font-weight: bold;&quot;&gt;simple&lt;/span&gt;&lt;span style=&quot;color: rgb(122, 62, 157); font-weight: bold;&quot;&gt;-&lt;/span&gt;&lt;span style=&quot;color: rgb(122, 62, 157); font-weight: bold;&quot;&gt;type&lt;/span&gt;&lt;span style=&quot;color: rgb(122, 62, 157); font-weight: bold;&quot;&gt;-&lt;/span&gt;&lt;span style=&quot;color: rgb(122, 62, 157); font-weight: bold;&quot;&gt;specifier&lt;/span&gt;&lt;span style=&quot;color: rgb(51, 51, 51);&quot;&gt; &lt;/span&gt;&lt;span style=&quot;color: rgb(51, 51, 51);&quot;&gt;&lt;font color=&quot;#7a3e9d&quot;&gt;()&lt;/font&gt;&lt;/span&gt;&lt;/div&gt;&lt;/div&gt;" style="text;whiteSpace=wrap;html=1;" vertex="1" parent="1">
          <mxGeometry x="-5890" y="7940" width="220" height="40" as="geometry" />
        </mxCell>
        <mxCell id="_-G8AOY4ad8tcSgJihSU-118" value="&lt;div style=&quot;background-color: rgb(245, 245, 245); font-family: Menlo, Monaco, &amp;quot;Courier New&amp;quot;, monospace; font-weight: normal; font-size: 15px; line-height: 23px; white-space: pre; color: rgb(51, 51, 51);&quot;&gt;&lt;div style=&quot;&quot;&gt;&lt;span style=&quot;color: rgb(122, 62, 157); font-weight: bold;&quot;&gt;simple&lt;/span&gt;&lt;span style=&quot;color: rgb(122, 62, 157); font-weight: bold;&quot;&gt;-&lt;/span&gt;&lt;span style=&quot;color: rgb(122, 62, 157); font-weight: bold;&quot;&gt;type&lt;/span&gt;&lt;span style=&quot;color: rgb(122, 62, 157); font-weight: bold;&quot;&gt;-&lt;/span&gt;&lt;span style=&quot;color: rgb(122, 62, 157); font-weight: bold;&quot;&gt;specifier&lt;/span&gt;&lt;span style=&quot;color: rgb(51, 51, 51);&quot;&gt; &lt;/span&gt;&lt;span style=&quot;color: rgb(51, 51, 51);&quot;&gt;&lt;font color=&quot;#7a3e9d&quot;&gt;(&lt;/font&gt;&lt;/span&gt;&lt;span style=&quot;color: rgb(51, 51, 51);&quot;&gt; &lt;/span&gt;&lt;span style=&quot;color: rgb(122, 62, 157); font-weight: bold;&quot;&gt;expression&lt;/span&gt;&lt;span style=&quot;color: rgb(122, 62, 157); font-weight: bold;&quot;&gt;-&lt;/span&gt;&lt;span style=&quot;color: rgb(122, 62, 157); font-weight: bold;&quot;&gt;list&lt;/span&gt;&lt;span style=&quot;color: rgb(51, 51, 51);&quot;&gt; &lt;/span&gt;&lt;span style=&quot;color: rgb(51, 51, 51);&quot;&gt;&lt;font color=&quot;#7a3e9d&quot;&gt;)&lt;/font&gt;&lt;/span&gt;&lt;/div&gt;&lt;/div&gt;" style="text;whiteSpace=wrap;html=1;" vertex="1" parent="1">
          <mxGeometry x="-5620" y="7941.25" width="370" height="42.5" as="geometry" />
        </mxCell>
        <mxCell id="_-G8AOY4ad8tcSgJihSU-119" value="&lt;div style=&quot;background-color: rgb(245, 245, 245); font-family: Menlo, Monaco, &amp;quot;Courier New&amp;quot;, monospace; font-weight: normal; font-size: 15px; line-height: 23px; white-space: pre; color: rgb(51, 51, 51);&quot;&gt;&lt;div style=&quot;&quot;&gt;&lt;span style=&quot;color: rgb(122, 62, 157); font-weight: bold;&quot;&gt;postfix&lt;/span&gt;&lt;span style=&quot;color: rgb(122, 62, 157); font-weight: bold;&quot;&gt;-&lt;/span&gt;&lt;span style=&quot;color: rgb(122, 62, 157); font-weight: bold;&quot;&gt;expression&lt;/span&gt;&lt;span style=&quot;color: rgb(51, 51, 51);&quot;&gt; &lt;/span&gt;&lt;span style=&quot;color: rgb(51, 51, 51);&quot;&gt;&lt;font color=&quot;#7a3e9d&quot;&gt;.&lt;/font&gt;&lt;/span&gt;&lt;span style=&quot;color: rgb(51, 51, 51);&quot;&gt; &lt;/span&gt;&lt;span style=&quot;color: rgb(122, 62, 157); font-weight: bold;&quot;&gt;id&lt;/span&gt;&lt;span style=&quot;color: rgb(122, 62, 157); font-weight: bold;&quot;&gt;-&lt;/span&gt;&lt;span style=&quot;color: rgb(122, 62, 157); font-weight: bold;&quot;&gt;expression&lt;/span&gt;&lt;/div&gt;&lt;/div&gt;" style="text;whiteSpace=wrap;html=1;" vertex="1" parent="1">
          <mxGeometry x="-5230" y="7940" width="320" height="40" as="geometry" />
        </mxCell>
        <mxCell id="_-G8AOY4ad8tcSgJihSU-120" value="&lt;div style=&quot;background-color: rgb(245, 245, 245); font-family: Menlo, Monaco, &amp;quot;Courier New&amp;quot;, monospace; font-weight: normal; font-size: 15px; line-height: 23px; white-space: pre; color: rgb(51, 51, 51);&quot;&gt;&lt;div style=&quot;&quot;&gt;&lt;span style=&quot;color: rgb(122, 62, 157); font-weight: bold;&quot;&gt;postfix&lt;/span&gt;&lt;span style=&quot;color: rgb(122, 62, 157); font-weight: bold;&quot;&gt;-&lt;/span&gt;&lt;span style=&quot;color: rgb(122, 62, 157); font-weight: bold;&quot;&gt;expression&lt;/span&gt;&lt;span style=&quot;color: rgb(51, 51, 51);&quot;&gt; &lt;/span&gt;&lt;span style=&quot;color: rgb(51, 51, 51);&quot;&gt;&lt;font color=&quot;#7a3e9d&quot;&gt;-&amp;gt;&lt;/font&gt;&lt;/span&gt;&lt;span style=&quot;color: rgb(51, 51, 51);&quot;&gt;  &lt;/span&gt;&lt;span style=&quot;color: rgb(122, 62, 157); font-weight: bold;&quot;&gt;id&lt;/span&gt;&lt;span style=&quot;color: rgb(122, 62, 157); font-weight: bold;&quot;&gt;-&lt;/span&gt;&lt;span style=&quot;color: rgb(122, 62, 157); font-weight: bold;&quot;&gt;expression&lt;/span&gt;&lt;span style=&quot;color: rgb(51, 51, 51);&quot;&gt; &lt;/span&gt;&lt;/div&gt;&lt;/div&gt;" style="text;whiteSpace=wrap;html=1;" vertex="1" parent="1">
          <mxGeometry x="-4890" y="7940" width="340" height="40" as="geometry" />
        </mxCell>
        <mxCell id="_-G8AOY4ad8tcSgJihSU-121" value="&lt;div style=&quot;background-color: rgb(245, 245, 245); font-family: Menlo, Monaco, &amp;quot;Courier New&amp;quot;, monospace; font-weight: normal; font-size: 15px; line-height: 23px; white-space: pre; color: rgb(51, 51, 51);&quot;&gt;&lt;div style=&quot;&quot;&gt;&lt;span style=&quot;color: rgb(122, 62, 157); font-weight: bold;&quot;&gt;postfix&lt;/span&gt;&lt;span style=&quot;color: rgb(122, 62, 157); font-weight: bold;&quot;&gt;-&lt;/span&gt;&lt;span style=&quot;color: rgb(122, 62, 157); font-weight: bold;&quot;&gt;expression&lt;/span&gt;&lt;span style=&quot;color: rgb(51, 51, 51);&quot;&gt; &lt;/span&gt;&lt;span style=&quot;color: rgb(51, 51, 51);&quot;&gt;&lt;font color=&quot;#7a3e9d&quot;&gt;++&lt;/font&gt;&lt;/span&gt;&lt;/div&gt;&lt;/div&gt;" style="text;whiteSpace=wrap;html=1;" vertex="1" parent="1">
          <mxGeometry x="-4520" y="7937.5" width="200" height="42.5" as="geometry" />
        </mxCell>
        <mxCell id="_-G8AOY4ad8tcSgJihSU-122" value="&lt;div style=&quot;background-color: rgb(245, 245, 245); font-family: Menlo, Monaco, &amp;quot;Courier New&amp;quot;, monospace; font-weight: normal; font-size: 15px; line-height: 23px; white-space: pre; color: rgb(51, 51, 51);&quot;&gt;&lt;div style=&quot;&quot;&gt;&lt;span style=&quot;color: rgb(122, 62, 157); font-weight: bold;&quot;&gt;postfix&lt;/span&gt;&lt;span style=&quot;color: rgb(122, 62, 157); font-weight: bold;&quot;&gt;-&lt;/span&gt;&lt;span style=&quot;color: rgb(122, 62, 157); font-weight: bold;&quot;&gt;expression&lt;/span&gt;&lt;span style=&quot;color: rgb(51, 51, 51);&quot;&gt; &lt;/span&gt;&lt;span style=&quot;color: rgb(51, 51, 51);&quot;&gt;&lt;font color=&quot;#7a3e9d&quot;&gt;--&lt;/font&gt;&lt;/span&gt;&lt;/div&gt;&lt;/div&gt;" style="text;whiteSpace=wrap;html=1;" vertex="1" parent="1">
          <mxGeometry x="-4280" y="7935" width="220" height="35" as="geometry" />
        </mxCell>
        <mxCell id="_-G8AOY4ad8tcSgJihSU-123" value="" style="endArrow=classic;html=1;rounded=0;exitX=0;exitY=1;exitDx=0;exitDy=0;entryX=0.5;entryY=0;entryDx=0;entryDy=0;" edge="1" parent="1" source="_-G8AOY4ad8tcSgJihSU-89" target="_-G8AOY4ad8tcSgJihSU-113">
          <mxGeometry width="50" height="50" relative="1" as="geometry">
            <mxPoint x="-6680" y="7910" as="sourcePoint" />
            <mxPoint x="-6630" y="7860" as="targetPoint" />
          </mxGeometry>
        </mxCell>
        <mxCell id="_-G8AOY4ad8tcSgJihSU-124" value="" style="endArrow=classic;html=1;rounded=0;exitX=0.5;exitY=1;exitDx=0;exitDy=0;entryX=0.25;entryY=0;entryDx=0;entryDy=0;" edge="1" parent="1" source="_-G8AOY4ad8tcSgJihSU-89" target="_-G8AOY4ad8tcSgJihSU-114">
          <mxGeometry width="50" height="50" relative="1" as="geometry">
            <mxPoint x="-6680" y="7910" as="sourcePoint" />
            <mxPoint x="-6630" y="7860" as="targetPoint" />
          </mxGeometry>
        </mxCell>
        <mxCell id="_-G8AOY4ad8tcSgJihSU-125" value="" style="endArrow=classic;html=1;rounded=0;exitX=0.5;exitY=1;exitDx=0;exitDy=0;entryX=0;entryY=0;entryDx=0;entryDy=0;" edge="1" parent="1" source="_-G8AOY4ad8tcSgJihSU-89" target="_-G8AOY4ad8tcSgJihSU-115">
          <mxGeometry width="50" height="50" relative="1" as="geometry">
            <mxPoint x="-6680" y="7910" as="sourcePoint" />
            <mxPoint x="-6630" y="7860" as="targetPoint" />
          </mxGeometry>
        </mxCell>
        <mxCell id="_-G8AOY4ad8tcSgJihSU-126" value="" style="endArrow=classic;html=1;rounded=0;exitX=0.5;exitY=1;exitDx=0;exitDy=0;entryX=0;entryY=0.25;entryDx=0;entryDy=0;" edge="1" parent="1" source="_-G8AOY4ad8tcSgJihSU-89" target="_-G8AOY4ad8tcSgJihSU-116">
          <mxGeometry width="50" height="50" relative="1" as="geometry">
            <mxPoint x="-6680" y="7910" as="sourcePoint" />
            <mxPoint x="-6630" y="7860" as="targetPoint" />
          </mxGeometry>
        </mxCell>
        <mxCell id="_-G8AOY4ad8tcSgJihSU-127" value="" style="endArrow=classic;html=1;rounded=0;exitX=0.5;exitY=1;exitDx=0;exitDy=0;entryX=0;entryY=0;entryDx=0;entryDy=0;" edge="1" parent="1" source="_-G8AOY4ad8tcSgJihSU-89" target="_-G8AOY4ad8tcSgJihSU-117">
          <mxGeometry width="50" height="50" relative="1" as="geometry">
            <mxPoint x="-6240" y="7910" as="sourcePoint" />
            <mxPoint x="-5980" y="7910" as="targetPoint" />
          </mxGeometry>
        </mxCell>
        <mxCell id="_-G8AOY4ad8tcSgJihSU-128" value="" style="endArrow=classic;html=1;rounded=0;exitX=0.5;exitY=1;exitDx=0;exitDy=0;entryX=0;entryY=0;entryDx=0;entryDy=0;" edge="1" parent="1" source="_-G8AOY4ad8tcSgJihSU-89" target="_-G8AOY4ad8tcSgJihSU-118">
          <mxGeometry width="50" height="50" relative="1" as="geometry">
            <mxPoint x="-6240" y="7910" as="sourcePoint" />
            <mxPoint x="-6190" y="7860" as="targetPoint" />
          </mxGeometry>
        </mxCell>
        <mxCell id="_-G8AOY4ad8tcSgJihSU-129" value="" style="endArrow=classic;html=1;rounded=0;exitX=0.5;exitY=1;exitDx=0;exitDy=0;entryX=0;entryY=0;entryDx=0;entryDy=0;" edge="1" parent="1" source="_-G8AOY4ad8tcSgJihSU-89" target="_-G8AOY4ad8tcSgJihSU-119">
          <mxGeometry width="50" height="50" relative="1" as="geometry">
            <mxPoint x="-6830" y="7670" as="sourcePoint" />
            <mxPoint x="-6070" y="7860" as="targetPoint" />
          </mxGeometry>
        </mxCell>
        <mxCell id="_-G8AOY4ad8tcSgJihSU-130" value="" style="endArrow=classic;html=1;rounded=0;exitX=0.5;exitY=1;exitDx=0;exitDy=0;entryX=0;entryY=0;entryDx=0;entryDy=0;" edge="1" parent="1" source="_-G8AOY4ad8tcSgJihSU-89" target="_-G8AOY4ad8tcSgJihSU-120">
          <mxGeometry width="50" height="50" relative="1" as="geometry">
            <mxPoint x="-6540" y="7910" as="sourcePoint" />
            <mxPoint x="-6490" y="7860" as="targetPoint" />
          </mxGeometry>
        </mxCell>
        <mxCell id="_-G8AOY4ad8tcSgJihSU-131" value="" style="endArrow=classic;html=1;rounded=0;exitX=0.5;exitY=1;exitDx=0;exitDy=0;entryX=0.054;entryY=0.032;entryDx=0;entryDy=0;entryPerimeter=0;" edge="1" parent="1" source="_-G8AOY4ad8tcSgJihSU-89" target="_-G8AOY4ad8tcSgJihSU-121">
          <mxGeometry width="50" height="50" relative="1" as="geometry">
            <mxPoint x="-6480" y="7910" as="sourcePoint" />
            <mxPoint x="-6430" y="7860" as="targetPoint" />
          </mxGeometry>
        </mxCell>
        <mxCell id="_-G8AOY4ad8tcSgJihSU-132" value="" style="endArrow=classic;html=1;rounded=0;exitX=0.5;exitY=1;exitDx=0;exitDy=0;entryX=0;entryY=0;entryDx=0;entryDy=0;" edge="1" parent="1" source="_-G8AOY4ad8tcSgJihSU-89" target="_-G8AOY4ad8tcSgJihSU-122">
          <mxGeometry width="50" height="50" relative="1" as="geometry">
            <mxPoint x="-6400" y="7910" as="sourcePoint" />
            <mxPoint x="-6350" y="7860" as="targetPoint" />
          </mxGeometry>
        </mxCell>
        <mxCell id="_-G8AOY4ad8tcSgJihSU-133" value="&lt;div style=&quot;color: #333333;background-color: #f5f5f5;font-family: Menlo, Monaco, &#39;Courier New&#39;, monospace;font-weight: normal;font-size: 15px;line-height: 23px;white-space: pre;&quot;&gt;&lt;div&gt;&lt;span style=&quot;color: #7a3e9d;font-weight: bold;&quot;&gt;initializer-list&lt;/span&gt;&lt;/div&gt;&lt;/div&gt;" style="text;whiteSpace=wrap;html=1;" vertex="1" parent="1">
          <mxGeometry x="200" y="-110" width="140" height="30" as="geometry" />
        </mxCell>
        <mxCell id="_-G8AOY4ad8tcSgJihSU-135" value="&lt;div style=&quot;color: #333333;background-color: #f5f5f5;font-family: Menlo, Monaco, &#39;Courier New&#39;, monospace;font-weight: normal;font-size: 15px;line-height: 23px;white-space: pre;&quot;&gt;&lt;div&gt;&lt;span style=&quot;color: #7a3e9d;font-weight: bold;&quot;&gt;initializer-clause&lt;/span&gt;&lt;/div&gt;&lt;/div&gt;" style="text;whiteSpace=wrap;html=1;" vertex="1" parent="1">
          <mxGeometry x="20" y="50" width="170" height="30" as="geometry" />
        </mxCell>
        <mxCell id="_-G8AOY4ad8tcSgJihSU-136" value="&lt;div style=&quot;background-color: rgb(245, 245, 245); font-family: Menlo, Monaco, &amp;quot;Courier New&amp;quot;, monospace; font-weight: normal; font-size: 15px; line-height: 23px; white-space: pre; color: rgb(51, 51, 51);&quot;&gt;&lt;div style=&quot;&quot;&gt;&lt;span style=&quot;color: rgb(122, 62, 157); font-weight: bold;&quot;&gt;initializer&lt;/span&gt;&lt;span style=&quot;color: rgb(122, 62, 157); font-weight: bold;&quot;&gt;-&lt;/span&gt;&lt;span style=&quot;color: rgb(122, 62, 157); font-weight: bold;&quot;&gt;list&lt;/span&gt;&lt;span style=&quot;color: rgb(51, 51, 51);&quot;&gt; &lt;/span&gt;&lt;span style=&quot;color: rgb(51, 51, 51);&quot;&gt;&lt;font color=&quot;#7a3e9d&quot;&gt;,&lt;/font&gt;&lt;/span&gt;&lt;span style=&quot;color: rgb(51, 51, 51);&quot;&gt; &lt;/span&gt;&lt;span style=&quot;color: rgb(122, 62, 157); font-weight: bold;&quot;&gt;initializer&lt;/span&gt;&lt;span style=&quot;color: rgb(122, 62, 157); font-weight: bold;&quot;&gt;-&lt;/span&gt;&lt;span style=&quot;color: rgb(122, 62, 157); font-weight: bold;&quot;&gt;clause&lt;/span&gt;&lt;/div&gt;&lt;/div&gt;" style="text;whiteSpace=wrap;html=1;" vertex="1" parent="1">
          <mxGeometry x="410" y="40" width="350" height="40" as="geometry" />
        </mxCell>
        <mxCell id="_-G8AOY4ad8tcSgJihSU-137" value="" style="endArrow=classic;html=1;rounded=0;exitX=0.75;exitY=1;exitDx=0;exitDy=0;entryX=0.25;entryY=0;entryDx=0;entryDy=0;" edge="1" parent="1" source="_-G8AOY4ad8tcSgJihSU-133" target="_-G8AOY4ad8tcSgJihSU-136">
          <mxGeometry width="50" height="50" relative="1" as="geometry">
            <mxPoint x="400" y="400" as="sourcePoint" />
            <mxPoint x="450" y="350" as="targetPoint" />
          </mxGeometry>
        </mxCell>
        <mxCell id="_-G8AOY4ad8tcSgJihSU-138" value="" style="endArrow=classic;html=1;rounded=0;exitX=0;exitY=0.75;exitDx=0;exitDy=0;entryX=0.25;entryY=0;entryDx=0;entryDy=0;" edge="1" parent="1" source="_-G8AOY4ad8tcSgJihSU-133" target="_-G8AOY4ad8tcSgJihSU-135">
          <mxGeometry width="50" height="50" relative="1" as="geometry">
            <mxPoint x="320" y="180" as="sourcePoint" />
            <mxPoint x="370" y="130" as="targetPoint" />
          </mxGeometry>
        </mxCell>
        <mxCell id="_-G8AOY4ad8tcSgJihSU-139" value="" style="endArrow=classic;html=1;rounded=0;exitX=0.25;exitY=1;exitDx=0;exitDy=0;entryX=0;entryY=0;entryDx=0;entryDy=0;" edge="1" parent="1" source="_-G8AOY4ad8tcSgJihSU-135" target="y3KNvf3Aafu49CcPfoXo-1">
          <mxGeometry width="50" height="50" relative="1" as="geometry">
            <mxPoint x="400" y="400" as="sourcePoint" />
            <mxPoint x="450" y="350" as="targetPoint" />
          </mxGeometry>
        </mxCell>
        <mxCell id="_-G8AOY4ad8tcSgJihSU-140" value="" style="endArrow=classic;html=1;rounded=0;exitX=0.75;exitY=1;exitDx=0;exitDy=0;entryX=0.75;entryY=0;entryDx=0;entryDy=0;" edge="1" parent="1" source="_-G8AOY4ad8tcSgJihSU-136" target="y3KNvf3Aafu49CcPfoXo-1">
          <mxGeometry width="50" height="50" relative="1" as="geometry">
            <mxPoint x="400" y="400" as="sourcePoint" />
            <mxPoint x="450" y="350" as="targetPoint" />
          </mxGeometry>
        </mxCell>
        <mxCell id="_-G8AOY4ad8tcSgJihSU-141" value="" style="endArrow=classic;html=1;rounded=0;exitX=0.75;exitY=0;exitDx=0;exitDy=0;strokeColor=#CC0000;strokeWidth=5;entryX=0.5;entryY=1;entryDx=0;entryDy=0;" edge="1" parent="1" source="_-G8AOY4ad8tcSgJihSU-116" target="_-G8AOY4ad8tcSgJihSU-133">
          <mxGeometry width="50" height="50" relative="1" as="geometry">
            <mxPoint x="-6420" y="8110" as="sourcePoint" />
            <mxPoint x="360" y="160" as="targetPoint" />
            <Array as="points">
              <mxPoint x="-5220" y="7570" />
              <mxPoint x="80" y="5030" />
            </Array>
          </mxGeometry>
        </mxCell>
        <mxCell id="_-G8AOY4ad8tcSgJihSU-143" value="" style="endArrow=none;html=1;rounded=0;exitX=0.75;exitY=0;exitDx=0;exitDy=0;strokeColor=#CC0000;strokeWidth=5;" edge="1" parent="1" source="_-G8AOY4ad8tcSgJihSU-118">
          <mxGeometry width="50" height="50" relative="1" as="geometry">
            <mxPoint x="-5590" y="7920" as="sourcePoint" />
            <mxPoint x="-5220" y="7570" as="targetPoint" />
          </mxGeometry>
        </mxCell>
        <mxCell id="_-G8AOY4ad8tcSgJihSU-145" value="" style="endArrow=classic;html=1;rounded=0;exitX=0.75;exitY=0;exitDx=0;exitDy=0;entryX=0.5;entryY=1;entryDx=0;entryDy=0;strokeColor=#CC0000;strokeWidth=5;" edge="1" parent="1" source="_-G8AOY4ad8tcSgJihSU-114" target="y3KNvf3Aafu49CcPfoXo-8">
          <mxGeometry width="50" height="50" relative="1" as="geometry">
            <mxPoint x="-6100" y="7920" as="sourcePoint" />
            <mxPoint x="-6050" y="7870" as="targetPoint" />
            <Array as="points">
              <mxPoint x="-270" y="4490" />
            </Array>
          </mxGeometry>
        </mxCell>
        <mxCell id="_-G8AOY4ad8tcSgJihSU-146" value="&lt;div style=&quot;color: #333333;background-color: #f5f5f5;font-family: Menlo, Monaco, &#39;Courier New&#39;, monospace;font-weight: normal;font-size: 15px;line-height: 23px;white-space: pre;&quot;&gt;&lt;div&gt;&lt;span style=&quot;color: #7a3e9d;font-weight: bold;&quot;&gt;literal&lt;/span&gt;&lt;/div&gt;&lt;/div&gt;" style="text;whiteSpace=wrap;html=1;" vertex="1" parent="1">
          <mxGeometry x="-7630" y="8672.5" width="70" height="40" as="geometry" />
        </mxCell>
        <mxCell id="_-G8AOY4ad8tcSgJihSU-147" value="&lt;div style=&quot;background-color: rgb(245, 245, 245); font-family: Menlo, Monaco, &amp;quot;Courier New&amp;quot;, monospace; font-weight: normal; font-size: 15px; line-height: 23px; white-space: pre; color: rgb(51, 51, 51);&quot;&gt;&lt;div style=&quot;&quot;&gt;&lt;span style=&quot;color: rgb(51, 51, 51);&quot;&gt;&lt;font color=&quot;#7a3e9d&quot;&gt;(&lt;/font&gt;&lt;/span&gt;&lt;span style=&quot;color: rgb(51, 51, 51);&quot;&gt; &lt;/span&gt;&lt;span style=&quot;color: rgb(122, 62, 157); font-weight: bold;&quot;&gt;expression&lt;/span&gt;&lt;span style=&quot;color: rgb(51, 51, 51);&quot;&gt; &lt;/span&gt;&lt;span style=&quot;color: rgb(51, 51, 51);&quot;&gt;&lt;font color=&quot;#7a3e9d&quot;&gt;)&lt;/font&gt;&lt;/span&gt;&lt;/div&gt;&lt;/div&gt;" style="text;whiteSpace=wrap;html=1;" vertex="1" parent="1">
          <mxGeometry x="-7100" y="8672.5" width="150" height="37.5" as="geometry" />
        </mxCell>
        <mxCell id="_-G8AOY4ad8tcSgJihSU-148" value="&lt;div style=&quot;color: #333333;background-color: #f5f5f5;font-family: Menlo, Monaco, &#39;Courier New&#39;, monospace;font-weight: normal;font-size: 15px;line-height: 23px;white-space: pre;&quot;&gt;&lt;div&gt;&lt;span style=&quot;color: #7a3e9d;font-weight: bold;&quot;&gt;id&lt;/span&gt;&lt;span style=&quot;color: #7a3e9d;font-weight: bold;&quot;&gt;-&lt;/span&gt;&lt;span style=&quot;color: #7a3e9d;font-weight: bold;&quot;&gt;expression&lt;/span&gt;&lt;/div&gt;&lt;/div&gt;" style="text;whiteSpace=wrap;html=1;" vertex="1" parent="1">
          <mxGeometry x="-6730" y="8672.5" width="130" height="45" as="geometry" />
        </mxCell>
        <mxCell id="_-G8AOY4ad8tcSgJihSU-149" value="" style="endArrow=classic;html=1;rounded=0;exitX=0;exitY=1;exitDx=0;exitDy=0;entryX=0.5;entryY=0;entryDx=0;entryDy=0;" edge="1" parent="1" source="_-G8AOY4ad8tcSgJihSU-113" target="_-G8AOY4ad8tcSgJihSU-146">
          <mxGeometry width="50" height="50" relative="1" as="geometry">
            <mxPoint x="-7170" y="8380" as="sourcePoint" />
            <mxPoint x="-7120" y="8330" as="targetPoint" />
          </mxGeometry>
        </mxCell>
        <mxCell id="_-G8AOY4ad8tcSgJihSU-150" value="" style="endArrow=classic;html=1;rounded=0;exitX=0.25;exitY=1;exitDx=0;exitDy=0;entryX=0;entryY=0;entryDx=0;entryDy=0;" edge="1" parent="1" source="_-G8AOY4ad8tcSgJihSU-113" target="_-G8AOY4ad8tcSgJihSU-147">
          <mxGeometry width="50" height="50" relative="1" as="geometry">
            <mxPoint x="-7170" y="8380" as="sourcePoint" />
            <mxPoint x="-7120" y="8330" as="targetPoint" />
          </mxGeometry>
        </mxCell>
        <mxCell id="_-G8AOY4ad8tcSgJihSU-151" value="" style="endArrow=classic;html=1;rounded=0;exitX=0.75;exitY=1;exitDx=0;exitDy=0;entryX=0;entryY=0;entryDx=0;entryDy=0;" edge="1" parent="1" source="_-G8AOY4ad8tcSgJihSU-113" target="_-G8AOY4ad8tcSgJihSU-148">
          <mxGeometry width="50" height="50" relative="1" as="geometry">
            <mxPoint x="-7170" y="8380" as="sourcePoint" />
            <mxPoint x="-7120" y="8330" as="targetPoint" />
          </mxGeometry>
        </mxCell>
        <mxCell id="_-G8AOY4ad8tcSgJihSU-153" value="" style="endArrow=none;html=1;rounded=0;exitX=0.5;exitY=0;exitDx=0;exitDy=0;strokeColor=#CC0000;strokeWidth=5;" edge="1" parent="1" source="_-G8AOY4ad8tcSgJihSU-147">
          <mxGeometry width="50" height="50" relative="1" as="geometry">
            <mxPoint x="-6660" y="8380" as="sourcePoint" />
            <mxPoint x="-6470" y="7870" as="targetPoint" />
          </mxGeometry>
        </mxCell>
        <mxCell id="_-G8AOY4ad8tcSgJihSU-154" value="&lt;div style=&quot;color: #333333;background-color: #f5f5f5;font-family: Menlo, Monaco, &#39;Courier New&#39;, monospace;font-weight: normal;font-size: 15px;line-height: 23px;white-space: pre;&quot;&gt;&lt;div&gt;&lt;span style=&quot;color: #7a3e9d;font-weight: bold;&quot;&gt;integer-literal&lt;/span&gt;&lt;/div&gt;&lt;/div&gt;" style="text;whiteSpace=wrap;html=1;" vertex="1" parent="1">
          <mxGeometry x="-7850" y="8945" width="140" height="30" as="geometry" />
        </mxCell>
        <mxCell id="_-G8AOY4ad8tcSgJihSU-155" value="&lt;div style=&quot;color: #333333;background-color: #f5f5f5;font-family: Menlo, Monaco, &#39;Courier New&#39;, monospace;font-weight: normal;font-size: 15px;line-height: 23px;white-space: pre;&quot;&gt;&lt;div&gt;&lt;span style=&quot;color: #7a3e9d;font-weight: bold;&quot;&gt;character&lt;/span&gt;&lt;span style=&quot;color: #7a3e9d;font-weight: bold;&quot;&gt;-&lt;/span&gt;&lt;span style=&quot;color: #7a3e9d;font-weight: bold;&quot;&gt;literal&lt;/span&gt;&lt;/div&gt;&lt;/div&gt;" style="text;whiteSpace=wrap;html=1;" vertex="1" parent="1">
          <mxGeometry x="-7580" y="8945" width="170" height="40" as="geometry" />
        </mxCell>
        <mxCell id="_-G8AOY4ad8tcSgJihSU-156" value="&lt;div style=&quot;color: #333333;background-color: #f5f5f5;font-family: Menlo, Monaco, &#39;Courier New&#39;, monospace;font-weight: normal;font-size: 15px;line-height: 23px;white-space: pre;&quot;&gt;&lt;div&gt;&lt;span style=&quot;color: #7a3e9d;font-weight: bold;&quot;&gt;floating&lt;/span&gt;&lt;span style=&quot;color: #7a3e9d;font-weight: bold;&quot;&gt;-&lt;/span&gt;&lt;span style=&quot;color: #7a3e9d;font-weight: bold;&quot;&gt;literal&lt;/span&gt;&lt;/div&gt;&lt;/div&gt;" style="text;whiteSpace=wrap;html=1;" vertex="1" parent="1">
          <mxGeometry x="-7320" y="8945" width="160" height="45" as="geometry" />
        </mxCell>
        <mxCell id="_-G8AOY4ad8tcSgJihSU-157" value="&lt;div style=&quot;color: #333333;background-color: #f5f5f5;font-family: Menlo, Monaco, &#39;Courier New&#39;, monospace;font-weight: normal;font-size: 15px;line-height: 23px;white-space: pre;&quot;&gt;&lt;div&gt;&lt;span style=&quot;color: #7a3e9d;font-weight: bold;&quot;&gt;string&lt;/span&gt;&lt;span style=&quot;color: #7a3e9d;font-weight: bold;&quot;&gt;-&lt;/span&gt;&lt;span style=&quot;color: #7a3e9d;font-weight: bold;&quot;&gt;literal&lt;/span&gt;&lt;/div&gt;&lt;/div&gt;" style="text;whiteSpace=wrap;html=1;" vertex="1" parent="1">
          <mxGeometry x="-7100" y="8945" width="130" height="30" as="geometry" />
        </mxCell>
        <mxCell id="_-G8AOY4ad8tcSgJihSU-158" value="&lt;div style=&quot;color: #333333;background-color: #f5f5f5;font-family: Menlo, Monaco, &#39;Courier New&#39;, monospace;font-weight: normal;font-size: 15px;line-height: 23px;white-space: pre;&quot;&gt;&lt;div&gt;&lt;span style=&quot;color: #7a3e9d;font-weight: bold;&quot;&gt;boolean&lt;/span&gt;&lt;span style=&quot;color: #7a3e9d;font-weight: bold;&quot;&gt;-&lt;/span&gt;&lt;span style=&quot;color: #7a3e9d;font-weight: bold;&quot;&gt;literal&lt;/span&gt;&lt;/div&gt;&lt;/div&gt;" style="text;whiteSpace=wrap;html=1;" vertex="1" parent="1">
          <mxGeometry x="-6890" y="8940" width="140" height="45" as="geometry" />
        </mxCell>
        <mxCell id="_-G8AOY4ad8tcSgJihSU-159" value="&lt;div style=&quot;color: #333333;background-color: #f5f5f5;font-family: Menlo, Monaco, &#39;Courier New&#39;, monospace;font-weight: normal;font-size: 15px;line-height: 23px;white-space: pre;&quot;&gt;&lt;div&gt;&lt;span style=&quot;color: #7a3e9d;font-weight: bold;&quot;&gt;pointer&lt;/span&gt;&lt;span style=&quot;color: #7a3e9d;font-weight: bold;&quot;&gt;-&lt;/span&gt;&lt;span style=&quot;color: #7a3e9d;font-weight: bold;&quot;&gt;literal&lt;/span&gt;&lt;/div&gt;&lt;/div&gt;" style="text;whiteSpace=wrap;html=1;" vertex="1" parent="1">
          <mxGeometry x="-6690" y="8947.5" width="150" height="35" as="geometry" />
        </mxCell>
        <mxCell id="_-G8AOY4ad8tcSgJihSU-160" value="" style="endArrow=classic;html=1;rounded=0;exitX=0;exitY=0.5;exitDx=0;exitDy=0;entryX=0;entryY=0;entryDx=0;entryDy=0;" edge="1" parent="1" source="_-G8AOY4ad8tcSgJihSU-146" target="_-G8AOY4ad8tcSgJihSU-154">
          <mxGeometry width="50" height="50" relative="1" as="geometry">
            <mxPoint x="-7030" y="8380" as="sourcePoint" />
            <mxPoint x="-6980" y="8330" as="targetPoint" />
          </mxGeometry>
        </mxCell>
        <mxCell id="_-G8AOY4ad8tcSgJihSU-161" value="" style="endArrow=classic;html=1;rounded=0;exitX=0.25;exitY=1;exitDx=0;exitDy=0;entryX=0;entryY=0;entryDx=0;entryDy=0;" edge="1" parent="1" source="_-G8AOY4ad8tcSgJihSU-146" target="_-G8AOY4ad8tcSgJihSU-155">
          <mxGeometry width="50" height="50" relative="1" as="geometry">
            <mxPoint x="-7030" y="8380" as="sourcePoint" />
            <mxPoint x="-6980" y="8330" as="targetPoint" />
          </mxGeometry>
        </mxCell>
        <mxCell id="_-G8AOY4ad8tcSgJihSU-162" value="" style="endArrow=classic;html=1;rounded=0;exitX=0.25;exitY=1;exitDx=0;exitDy=0;entryX=0;entryY=0.25;entryDx=0;entryDy=0;" edge="1" parent="1" source="_-G8AOY4ad8tcSgJihSU-146" target="_-G8AOY4ad8tcSgJihSU-156">
          <mxGeometry width="50" height="50" relative="1" as="geometry">
            <mxPoint x="-7030" y="8380" as="sourcePoint" />
            <mxPoint x="-6980" y="8330" as="targetPoint" />
          </mxGeometry>
        </mxCell>
        <mxCell id="_-G8AOY4ad8tcSgJihSU-163" value="" style="endArrow=classic;html=1;rounded=0;exitX=0.25;exitY=1;exitDx=0;exitDy=0;entryX=0;entryY=0.5;entryDx=0;entryDy=0;" edge="1" parent="1" source="_-G8AOY4ad8tcSgJihSU-146" target="_-G8AOY4ad8tcSgJihSU-157">
          <mxGeometry width="50" height="50" relative="1" as="geometry">
            <mxPoint x="-7030" y="8380" as="sourcePoint" />
            <mxPoint x="-6980" y="8330" as="targetPoint" />
          </mxGeometry>
        </mxCell>
        <mxCell id="_-G8AOY4ad8tcSgJihSU-164" value="" style="endArrow=classic;html=1;rounded=0;exitX=0.5;exitY=1;exitDx=0;exitDy=0;entryX=0;entryY=0.25;entryDx=0;entryDy=0;" edge="1" parent="1" source="_-G8AOY4ad8tcSgJihSU-146" target="_-G8AOY4ad8tcSgJihSU-158">
          <mxGeometry width="50" height="50" relative="1" as="geometry">
            <mxPoint x="-7030" y="8380" as="sourcePoint" />
            <mxPoint x="-6980" y="8330" as="targetPoint" />
          </mxGeometry>
        </mxCell>
        <mxCell id="_-G8AOY4ad8tcSgJihSU-165" value="" style="endArrow=classic;html=1;rounded=0;exitX=1;exitY=0.75;exitDx=0;exitDy=0;entryX=0;entryY=0;entryDx=0;entryDy=0;" edge="1" parent="1" source="_-G8AOY4ad8tcSgJihSU-146" target="_-G8AOY4ad8tcSgJihSU-159">
          <mxGeometry width="50" height="50" relative="1" as="geometry">
            <mxPoint x="-7030" y="8380" as="sourcePoint" />
            <mxPoint x="-6980" y="8330" as="targetPoint" />
          </mxGeometry>
        </mxCell>
        <mxCell id="_-G8AOY4ad8tcSgJihSU-169" value="" style="endArrow=classic;html=1;rounded=0;strokeColor=#CC0000;strokeWidth=100;" edge="1" parent="1">
          <mxGeometry width="50" height="50" relative="1" as="geometry">
            <mxPoint x="-5660" y="1030" as="sourcePoint" />
            <mxPoint x="-5640" y="3610" as="targetPoint" />
          </mxGeometry>
        </mxCell>
        <mxCell id="_-G8AOY4ad8tcSgJihSU-170" value="&lt;font style=&quot;font-size: 100px;&quot;&gt;优先级&lt;/font&gt;" style="edgeLabel;html=1;align=center;verticalAlign=middle;resizable=0;points=[];" vertex="1" connectable="0" parent="_-G8AOY4ad8tcSgJihSU-169">
          <mxGeometry x="0.0115" y="-1" relative="1" as="geometry">
            <mxPoint as="offset" />
          </mxGeometry>
        </mxCell>
        <mxCell id="_-G8AOY4ad8tcSgJihSU-171" value="&lt;font style=&quot;font-size: 100px;&quot;&gt;低&lt;/font&gt;" style="edgeLabel;html=1;align=center;verticalAlign=middle;resizable=0;points=[];" vertex="1" connectable="0" parent="_-G8AOY4ad8tcSgJihSU-169">
          <mxGeometry x="-0.7203" y="1" relative="1" as="geometry">
            <mxPoint as="offset" />
          </mxGeometry>
        </mxCell>
        <mxCell id="_-G8AOY4ad8tcSgJihSU-172" value="低" style="edgeLabel;html=1;align=center;verticalAlign=middle;resizable=0;points=[];" vertex="1" connectable="0" parent="_-G8AOY4ad8tcSgJihSU-169">
          <mxGeometry x="0.6331" y="3" relative="1" as="geometry">
            <mxPoint as="offset" />
          </mxGeometry>
        </mxCell>
        <mxCell id="_-G8AOY4ad8tcSgJihSU-174" value="&lt;font style=&quot;font-size: 100px;&quot;&gt;高&lt;/font&gt;" style="edgeLabel;html=1;align=center;verticalAlign=middle;resizable=0;points=[];" vertex="1" connectable="0" parent="_-G8AOY4ad8tcSgJihSU-169">
          <mxGeometry x="0.6466" y="7" relative="1" as="geometry">
            <mxPoint y="1" as="offset" />
          </mxGeometry>
        </mxCell>
      </root>
    </mxGraphModel>
  </diagram>
</mxfile>
